<mxfile host="65bd71144e">
    <diagram id="tjmWz-L2Z0vWePFaMeoU" name="Page-1">
        <mxGraphModel dx="4230" dy="1692" grid="1" gridSize="10" guides="1" tooltips="1" connect="1" arrows="1" fold="1" page="1" pageScale="1" pageWidth="850" pageHeight="1100" math="0" shadow="0">
            <root>
                <mxCell id="0"/>
                <mxCell id="1" parent="0"/>
                <mxCell id="GCxnZ_K5_v9I7kZ8iRKZ-68" value="" style="rounded=0;whiteSpace=wrap;html=1;fillColor=#FFECCC;strokeColor=#d79b00;movable=0;resizable=0;rotatable=0;deletable=0;editable=0;locked=1;connectable=0;" parent="1" vertex="1">
                    <mxGeometry x="1700" y="180" width="1365" height="550" as="geometry"/>
                </mxCell>
                <mxCell id="GCxnZ_K5_v9I7kZ8iRKZ-62" value="" style="rounded=0;whiteSpace=wrap;html=1;fillColor=#dae8fc;strokeColor=#6c8ebf;" parent="1" vertex="1">
                    <mxGeometry x="125" y="390" width="600" height="530" as="geometry"/>
                </mxCell>
                <mxCell id="GCxnZ_K5_v9I7kZ8iRKZ-32" value="" style="rounded=0;whiteSpace=wrap;html=1;fillColor=#d5e8d4;strokeColor=#82b366;" parent="1" vertex="1">
                    <mxGeometry x="305" y="150" width="220" height="210" as="geometry"/>
                </mxCell>
                <mxCell id="GCxnZ_K5_v9I7kZ8iRKZ-2" value="CRUMBSMessage" style="html=1;rounded=0;shadow=0;comic=0;labelBackgroundColor=none;strokeWidth=2;fontFamily=Verdana;fontSize=12;align=center;shape=mxgraph.ios7ui.horLines;fillColor=#d5e8d4;strokeColor=#82b366;" parent="1" vertex="1">
                    <mxGeometry x="1787.5" y="394" width="135" height="50" as="geometry"/>
                </mxCell>
                <mxCell id="GCxnZ_K5_v9I7kZ8iRKZ-3" value="Function" style="swimlane;html=1;fontStyle=0;childLayout=stackLayout;horizontal=1;startSize=26;fillColor=#dae8fc;horizontalStack=0;resizeParent=1;resizeLast=0;collapsible=1;marginBottom=0;swimlaneFillColor=#ffffff;align=center;rounded=1;shadow=0;comic=0;labelBackgroundColor=none;strokeWidth=1;fontFamily=Verdana;fontSize=12;strokeColor=#6c8ebf;" parent="1" vertex="1">
                    <mxGeometry x="1775" y="220" width="160" height="110" as="geometry"/>
                </mxCell>
                <mxCell id="GCxnZ_K5_v9I7kZ8iRKZ-4" value="Row 1" style="text;html=1;strokeColor=none;fillColor=none;spacingLeft=4;spacingRight=4;whiteSpace=wrap;overflow=hidden;rotatable=0;points=[[0,0.5],[1,0.5]];portConstraint=eastwest;" parent="GCxnZ_K5_v9I7kZ8iRKZ-3" vertex="1">
                    <mxGeometry y="26" width="160" height="26" as="geometry"/>
                </mxCell>
                <mxCell id="GCxnZ_K5_v9I7kZ8iRKZ-5" value="Row 2" style="text;html=1;strokeColor=none;fillColor=none;spacingLeft=4;spacingRight=4;whiteSpace=wrap;overflow=hidden;rotatable=0;points=[[0,0.5],[1,0.5]];portConstraint=eastwest;" parent="GCxnZ_K5_v9I7kZ8iRKZ-3" vertex="1">
                    <mxGeometry y="52" width="160" height="26" as="geometry"/>
                </mxCell>
                <mxCell id="GCxnZ_K5_v9I7kZ8iRKZ-6" value="Row 3" style="text;html=1;strokeColor=none;fillColor=none;spacingLeft=4;spacingRight=4;whiteSpace=wrap;overflow=hidden;rotatable=0;points=[[0,0.5],[1,0.5]];portConstraint=eastwest;" parent="GCxnZ_K5_v9I7kZ8iRKZ-3" vertex="1">
                    <mxGeometry y="78" width="160" height="26" as="geometry"/>
                </mxCell>
                <mxCell id="GCxnZ_K5_v9I7kZ8iRKZ-7" value="Function" style="swimlane;html=1;fontStyle=0;childLayout=stackLayout;horizontal=1;startSize=26;fillColor=#dae8fc;horizontalStack=0;resizeParent=1;resizeLast=0;collapsible=1;marginBottom=0;swimlaneFillColor=#ffffff;align=center;rounded=1;shadow=0;comic=0;labelBackgroundColor=none;strokeWidth=1;fontFamily=Verdana;fontSize=12;strokeColor=#6c8ebf;" parent="1" vertex="1">
                    <mxGeometry x="1775" y="524" width="160" height="140" as="geometry"/>
                </mxCell>
                <mxCell id="GCxnZ_K5_v9I7kZ8iRKZ-8" value="Row 1" style="text;html=1;strokeColor=none;fillColor=none;spacingLeft=4;spacingRight=4;whiteSpace=wrap;overflow=hidden;rotatable=0;points=[[0,0.5],[1,0.5]];portConstraint=eastwest;" parent="GCxnZ_K5_v9I7kZ8iRKZ-7" vertex="1">
                    <mxGeometry y="26" width="160" height="26" as="geometry"/>
                </mxCell>
                <mxCell id="GCxnZ_K5_v9I7kZ8iRKZ-9" value="Row 2" style="text;html=1;strokeColor=none;fillColor=none;spacingLeft=4;spacingRight=4;whiteSpace=wrap;overflow=hidden;rotatable=0;points=[[0,0.5],[1,0.5]];portConstraint=eastwest;" parent="GCxnZ_K5_v9I7kZ8iRKZ-7" vertex="1">
                    <mxGeometry y="52" width="160" height="26" as="geometry"/>
                </mxCell>
                <mxCell id="GCxnZ_K5_v9I7kZ8iRKZ-10" value="Row 3" style="text;html=1;strokeColor=none;fillColor=none;spacingLeft=4;spacingRight=4;whiteSpace=wrap;overflow=hidden;rotatable=0;points=[[0,0.5],[1,0.5]];portConstraint=eastwest;" parent="GCxnZ_K5_v9I7kZ8iRKZ-7" vertex="1">
                    <mxGeometry y="78" width="160" height="26" as="geometry"/>
                </mxCell>
                <mxCell id="GCxnZ_K5_v9I7kZ8iRKZ-11" value="Row 4" style="text;html=1;strokeColor=none;fillColor=none;spacingLeft=4;spacingRight=4;whiteSpace=wrap;overflow=hidden;rotatable=0;points=[[0,0.5],[1,0.5]];portConstraint=eastwest;" parent="GCxnZ_K5_v9I7kZ8iRKZ-7" vertex="1">
                    <mxGeometry y="104" width="160" height="26" as="geometry"/>
                </mxCell>
                <mxCell id="GCxnZ_K5_v9I7kZ8iRKZ-12" value="Function" style="swimlane;html=1;fontStyle=0;childLayout=stackLayout;horizontal=1;startSize=26;fillColor=#dae8fc;horizontalStack=0;resizeParent=1;resizeLast=0;collapsible=1;marginBottom=0;swimlaneFillColor=#ffffff;align=center;rounded=1;shadow=0;comic=0;labelBackgroundColor=none;strokeWidth=1;fontFamily=Verdana;fontSize=12;strokeColor=#6c8ebf;" parent="1" vertex="1">
                    <mxGeometry x="2175" y="220" width="160" height="84" as="geometry"/>
                </mxCell>
                <mxCell id="GCxnZ_K5_v9I7kZ8iRKZ-13" value="Row 1" style="text;html=1;strokeColor=none;fillColor=none;spacingLeft=4;spacingRight=4;whiteSpace=wrap;overflow=hidden;rotatable=0;points=[[0,0.5],[1,0.5]];portConstraint=eastwest;" parent="GCxnZ_K5_v9I7kZ8iRKZ-12" vertex="1">
                    <mxGeometry y="26" width="160" height="26" as="geometry"/>
                </mxCell>
                <mxCell id="GCxnZ_K5_v9I7kZ8iRKZ-14" value="Row 2" style="text;html=1;strokeColor=none;fillColor=none;spacingLeft=4;spacingRight=4;whiteSpace=wrap;overflow=hidden;rotatable=0;points=[[0,0.5],[1,0.5]];portConstraint=eastwest;" parent="GCxnZ_K5_v9I7kZ8iRKZ-12" vertex="1">
                    <mxGeometry y="52" width="160" height="26" as="geometry"/>
                </mxCell>
                <mxCell id="GCxnZ_K5_v9I7kZ8iRKZ-15" value="Function" style="swimlane;html=1;fontStyle=0;childLayout=stackLayout;horizontal=1;startSize=26;fillColor=#dae8fc;horizontalStack=0;resizeParent=1;resizeLast=0;collapsible=1;marginBottom=0;swimlaneFillColor=#ffffff;align=center;rounded=1;shadow=0;comic=0;labelBackgroundColor=none;strokeWidth=1;fontFamily=Verdana;fontSize=12;strokeColor=#6c8ebf;" parent="1" vertex="1">
                    <mxGeometry x="2175" y="524" width="160" height="110" as="geometry"/>
                </mxCell>
                <mxCell id="GCxnZ_K5_v9I7kZ8iRKZ-16" value="Row 1" style="text;html=1;strokeColor=none;fillColor=none;spacingLeft=4;spacingRight=4;whiteSpace=wrap;overflow=hidden;rotatable=0;points=[[0,0.5],[1,0.5]];portConstraint=eastwest;" parent="GCxnZ_K5_v9I7kZ8iRKZ-15" vertex="1">
                    <mxGeometry y="26" width="160" height="26" as="geometry"/>
                </mxCell>
                <mxCell id="GCxnZ_K5_v9I7kZ8iRKZ-17" value="Row 2" style="text;html=1;strokeColor=none;fillColor=none;spacingLeft=4;spacingRight=4;whiteSpace=wrap;overflow=hidden;rotatable=0;points=[[0,0.5],[1,0.5]];portConstraint=eastwest;" parent="GCxnZ_K5_v9I7kZ8iRKZ-15" vertex="1">
                    <mxGeometry y="52" width="160" height="26" as="geometry"/>
                </mxCell>
                <mxCell id="GCxnZ_K5_v9I7kZ8iRKZ-18" value="Row 3" style="text;html=1;strokeColor=none;fillColor=none;spacingLeft=4;spacingRight=4;whiteSpace=wrap;overflow=hidden;rotatable=0;points=[[0,0.5],[1,0.5]];portConstraint=eastwest;" parent="GCxnZ_K5_v9I7kZ8iRKZ-15" vertex="1">
                    <mxGeometry y="78" width="160" height="26" as="geometry"/>
                </mxCell>
                <mxCell id="GCxnZ_K5_v9I7kZ8iRKZ-19" value="CRUMBSMessage" style="html=1;rounded=0;shadow=0;comic=0;labelBackgroundColor=none;strokeWidth=2;fontFamily=Verdana;fontSize=12;align=center;shape=mxgraph.ios7ui.horLines;fillColor=#d5e8d4;strokeColor=#82b366;" parent="1" vertex="1">
                    <mxGeometry x="1995" y="394" width="135" height="50" as="geometry"/>
                </mxCell>
                <mxCell id="GCxnZ_K5_v9I7kZ8iRKZ-20" style="edgeStyle=none;html=1;labelBackgroundColor=none;startFill=0;startSize=8;endFill=1;endSize=8;fontFamily=Verdana;fontSize=12;" parent="1" source="GCxnZ_K5_v9I7kZ8iRKZ-7" target="GCxnZ_K5_v9I7kZ8iRKZ-2" edge="1">
                    <mxGeometry relative="1" as="geometry"/>
                </mxCell>
                <mxCell id="GCxnZ_K5_v9I7kZ8iRKZ-21" style="edgeStyle=none;html=1;labelBackgroundColor=none;startFill=0;startSize=8;endFill=1;endSize=8;fontFamily=Verdana;fontSize=12;" parent="1" source="GCxnZ_K5_v9I7kZ8iRKZ-2" target="GCxnZ_K5_v9I7kZ8iRKZ-3" edge="1">
                    <mxGeometry relative="1" as="geometry"/>
                </mxCell>
                <mxCell id="GCxnZ_K5_v9I7kZ8iRKZ-22" style="edgeStyle=orthogonalEdgeStyle;html=1;labelBackgroundColor=none;startFill=0;startSize=8;endFill=1;endSize=8;fontFamily=Verdana;fontSize=12;exitX=1;exitY=0.25;entryX=1;entryY=0.5;" parent="1" source="GCxnZ_K5_v9I7kZ8iRKZ-7" target="GCxnZ_K5_v9I7kZ8iRKZ-6" edge="1">
                    <mxGeometry relative="1" as="geometry">
                        <Array as="points">
                            <mxPoint x="1965" y="559"/>
                            <mxPoint x="1965" y="311"/>
                        </Array>
                    </mxGeometry>
                </mxCell>
                <mxCell id="GCxnZ_K5_v9I7kZ8iRKZ-23" value="" style="edgeStyle=orthogonalEdgeStyle;html=1;labelBackgroundColor=none;startFill=0;startSize=8;endFill=1;endSize=8;fontFamily=Verdana;fontSize=12;" parent="1" source="GCxnZ_K5_v9I7kZ8iRKZ-19" target="GCxnZ_K5_v9I7kZ8iRKZ-16" edge="1">
                    <mxGeometry x="-0.1342" y="32" relative="1" as="geometry">
                        <mxPoint as="offset"/>
                    </mxGeometry>
                </mxCell>
                <mxCell id="GCxnZ_K5_v9I7kZ8iRKZ-24" style="edgeStyle=orthogonalEdgeStyle;html=1;labelBackgroundColor=none;startFill=0;startSize=8;endFill=1;endSize=8;fontFamily=Verdana;fontSize=12;" parent="1" source="GCxnZ_K5_v9I7kZ8iRKZ-3" target="GCxnZ_K5_v9I7kZ8iRKZ-19" edge="1">
                    <mxGeometry relative="1" as="geometry">
                        <Array as="points">
                            <mxPoint x="2063" y="294"/>
                        </Array>
                    </mxGeometry>
                </mxCell>
                <mxCell id="GCxnZ_K5_v9I7kZ8iRKZ-25" style="edgeStyle=orthogonalEdgeStyle;html=1;labelBackgroundColor=none;startFill=0;startSize=8;endFill=1;endSize=8;fontFamily=Verdana;fontSize=12;" parent="1" source="GCxnZ_K5_v9I7kZ8iRKZ-15" target="GCxnZ_K5_v9I7kZ8iRKZ-12" edge="1">
                    <mxGeometry relative="1" as="geometry"/>
                </mxCell>
                <mxCell id="GCxnZ_K5_v9I7kZ8iRKZ-26" style="edgeStyle=orthogonalEdgeStyle;html=1;exitX=1;exitY=0.5;entryX=0;entryY=0.5;labelBackgroundColor=none;startFill=0;startSize=8;endFill=1;endSize=8;fontFamily=Verdana;fontSize=12;" parent="1" source="GCxnZ_K5_v9I7kZ8iRKZ-5" target="GCxnZ_K5_v9I7kZ8iRKZ-14" edge="1">
                    <mxGeometry relative="1" as="geometry">
                        <Array as="points"/>
                    </mxGeometry>
                </mxCell>
                <mxCell id="GCxnZ_K5_v9I7kZ8iRKZ-27" value="CRUMBSMessage struct" style="swimlane;html=1;fontStyle=0;childLayout=stackLayout;horizontal=1;startSize=26;fillColor=#e0e0e0;horizontalStack=0;resizeParent=1;resizeLast=0;collapsible=1;marginBottom=0;swimlaneFillColor=#ffffff;align=center;rounded=1;shadow=0;comic=0;labelBackgroundColor=none;strokeWidth=1;fontFamily=Verdana;fontSize=12" parent="1" vertex="1">
                    <mxGeometry x="335" y="190" width="160" height="160" as="geometry"/>
                </mxCell>
                <mxCell id="GCxnZ_K5_v9I7kZ8iRKZ-28" value="uint8_t sliceAddress" style="text;html=1;strokeColor=none;fillColor=none;spacingLeft=4;spacingRight=4;whiteSpace=wrap;overflow=hidden;rotatable=0;points=[[0,0.5],[1,0.5]];portConstraint=eastwest;" parent="GCxnZ_K5_v9I7kZ8iRKZ-27" vertex="1">
                    <mxGeometry y="26" width="160" height="26" as="geometry"/>
                </mxCell>
                <mxCell id="GCxnZ_K5_v9I7kZ8iRKZ-29" value="uint8_t&amp;nbsp;typeID" style="text;html=1;strokeColor=none;fillColor=none;spacingLeft=4;spacingRight=4;whiteSpace=wrap;overflow=hidden;rotatable=0;points=[[0,0.5],[1,0.5]];portConstraint=eastwest;" parent="GCxnZ_K5_v9I7kZ8iRKZ-27" vertex="1">
                    <mxGeometry y="52" width="160" height="26" as="geometry"/>
                </mxCell>
                <mxCell id="GCxnZ_K5_v9I7kZ8iRKZ-30" value="uint8_t&amp;nbsp;commandType" style="text;html=1;strokeColor=none;fillColor=none;spacingLeft=4;spacingRight=4;whiteSpace=wrap;overflow=hidden;rotatable=0;points=[[0,0.5],[1,0.5]];portConstraint=eastwest;" parent="GCxnZ_K5_v9I7kZ8iRKZ-27" vertex="1">
                    <mxGeometry y="78" width="160" height="22" as="geometry"/>
                </mxCell>
                <mxCell id="GCxnZ_K5_v9I7kZ8iRKZ-33" value="float data[6]" style="text;html=1;strokeColor=none;fillColor=none;spacingLeft=4;spacingRight=4;whiteSpace=wrap;overflow=hidden;rotatable=0;points=[[0,0.5],[1,0.5]];portConstraint=eastwest;" parent="GCxnZ_K5_v9I7kZ8iRKZ-27" vertex="1">
                    <mxGeometry y="100" width="160" height="22" as="geometry"/>
                </mxCell>
                <mxCell id="GCxnZ_K5_v9I7kZ8iRKZ-34" value="uint8_t&amp;nbsp;errorFlags" style="text;html=1;strokeColor=none;fillColor=none;spacingLeft=4;spacingRight=4;whiteSpace=wrap;overflow=hidden;rotatable=0;points=[[0,0.5],[1,0.5]];portConstraint=eastwest;" parent="GCxnZ_K5_v9I7kZ8iRKZ-27" vertex="1">
                    <mxGeometry y="122" width="160" height="22" as="geometry"/>
                </mxCell>
                <mxCell id="GCxnZ_K5_v9I7kZ8iRKZ-36" value="&lt;span style=&quot;color: rgb(0, 0, 0); font-family: Verdana; font-style: normal; font-variant-ligatures: normal; font-variant-caps: normal; letter-spacing: normal; orphans: 2; text-indent: 0px; text-transform: none; widows: 2; word-spacing: 0px; -webkit-text-stroke-width: 0px; white-space: nowrap; text-decoration-thickness: initial; text-decoration-style: initial; text-decoration-color: initial; float: none; display: inline !important;&quot;&gt;CRUMBSMessage.h&lt;/span&gt;" style="text;whiteSpace=wrap;html=1;align=center;fontSize=15;fontStyle=1;labelBackgroundColor=none;" parent="1" vertex="1">
                    <mxGeometry x="345" y="150" width="140" height="40" as="geometry"/>
                </mxCell>
                <mxCell id="GCxnZ_K5_v9I7kZ8iRKZ-37" value="&lt;font style=&quot;font-size: 16px;&quot;&gt;CRUMBS&lt;/font&gt;" style="swimlane;html=1;fontStyle=1;align=center;verticalAlign=top;childLayout=stackLayout;horizontal=1;startSize=26;horizontalStack=0;resizeParent=1;resizeLast=0;collapsible=1;marginBottom=0;swimlaneFillColor=#ffffff;rounded=0;shadow=0;comic=0;labelBackgroundColor=none;strokeWidth=1;fillColor=none;fontFamily=Verdana;fontSize=12" parent="1" vertex="1">
                    <mxGeometry x="150" y="424" width="550" height="466" as="geometry"/>
                </mxCell>
                <mxCell id="GCxnZ_K5_v9I7kZ8iRKZ-39" value="- i2cAddress: uint8_t" style="text;html=1;strokeColor=none;fillColor=none;align=left;verticalAlign=top;spacingLeft=4;spacingRight=4;whiteSpace=wrap;overflow=hidden;rotatable=0;points=[[0,0.5],[1,0.5]];portConstraint=eastwest;" parent="GCxnZ_K5_v9I7kZ8iRKZ-37" vertex="1">
                    <mxGeometry y="26" width="550" height="26" as="geometry"/>
                </mxCell>
                <mxCell id="GCxnZ_K5_v9I7kZ8iRKZ-40" value="- controllerMode: bool" style="text;html=1;strokeColor=none;fillColor=none;align=left;verticalAlign=top;spacingLeft=4;spacingRight=4;whiteSpace=wrap;overflow=hidden;rotatable=0;points=[[0,0.5],[1,0.5]];portConstraint=eastwest;" parent="GCxnZ_K5_v9I7kZ8iRKZ-37" vertex="1">
                    <mxGeometry y="52" width="550" height="26" as="geometry"/>
                </mxCell>
                <mxCell id="GCxnZ_K5_v9I7kZ8iRKZ-41" value="- receiveCallback: void (*)(CRUMBSMessage &amp;amp;)" style="text;html=1;strokeColor=none;fillColor=none;align=left;verticalAlign=top;spacingLeft=4;spacingRight=4;whiteSpace=wrap;overflow=hidden;rotatable=0;points=[[0,0.5],[1,0.5]];portConstraint=eastwest;" parent="GCxnZ_K5_v9I7kZ8iRKZ-37" vertex="1">
                    <mxGeometry y="78" width="550" height="26" as="geometry"/>
                </mxCell>
                <mxCell id="GCxnZ_K5_v9I7kZ8iRKZ-42" value="- requestCallback: void (*)()" style="text;html=1;strokeColor=none;fillColor=none;align=left;verticalAlign=top;spacingLeft=4;spacingRight=4;whiteSpace=wrap;overflow=hidden;rotatable=0;points=[[0,0.5],[1,0.5]];portConstraint=eastwest;" parent="GCxnZ_K5_v9I7kZ8iRKZ-37" vertex="1">
                    <mxGeometry y="104" width="550" height="26" as="geometry"/>
                </mxCell>
                <mxCell id="GCxnZ_K5_v9I7kZ8iRKZ-43" value="" style="line;html=1;strokeWidth=1;fillColor=none;align=left;verticalAlign=middle;spacingTop=-1;spacingLeft=3;spacingRight=3;rotatable=0;labelPosition=right;points=[];portConstraint=eastwest;" parent="GCxnZ_K5_v9I7kZ8iRKZ-37" vertex="1">
                    <mxGeometry y="130" width="550" height="8" as="geometry"/>
                </mxCell>
                <mxCell id="GCxnZ_K5_v9I7kZ8iRKZ-45" value="_ instance: CRUMBS*" style="text;html=1;strokeColor=none;fillColor=none;align=left;verticalAlign=top;spacingLeft=4;spacingRight=4;whiteSpace=wrap;overflow=hidden;rotatable=0;points=[[0,0.5],[1,0.5]];portConstraint=eastwest;" parent="GCxnZ_K5_v9I7kZ8iRKZ-37" vertex="1">
                    <mxGeometry y="138" width="550" height="26" as="geometry"/>
                </mxCell>
                <mxCell id="GCxnZ_K5_v9I7kZ8iRKZ-59" value="" style="line;html=1;strokeWidth=1;fillColor=none;align=left;verticalAlign=middle;spacingTop=-1;spacingLeft=3;spacingRight=3;rotatable=0;labelPosition=right;points=[];portConstraint=eastwest;" parent="GCxnZ_K5_v9I7kZ8iRKZ-37" vertex="1">
                    <mxGeometry y="164" width="550" height="8" as="geometry"/>
                </mxCell>
                <mxCell id="GCxnZ_K5_v9I7kZ8iRKZ-60" value="+ CRUMBS(isController: bool = false, address: uint8_t = 0)" style="text;html=1;strokeColor=none;fillColor=none;align=left;verticalAlign=top;spacingLeft=4;spacingRight=4;whiteSpace=wrap;overflow=hidden;rotatable=0;points=[[0,0.5],[1,0.5]];portConstraint=eastwest;" parent="GCxnZ_K5_v9I7kZ8iRKZ-37" vertex="1">
                    <mxGeometry y="172" width="550" height="26" as="geometry"/>
                </mxCell>
                <mxCell id="GCxnZ_K5_v9I7kZ8iRKZ-46" value="+ begin(): void" style="text;html=1;strokeColor=none;fillColor=none;align=left;verticalAlign=top;spacingLeft=4;spacingRight=4;whiteSpace=wrap;overflow=hidden;rotatable=0;points=[[0,0.5],[1,0.5]];portConstraint=eastwest;" parent="GCxnZ_K5_v9I7kZ8iRKZ-37" vertex="1">
                    <mxGeometry y="198" width="550" height="26" as="geometry"/>
                </mxCell>
                <mxCell id="GCxnZ_K5_v9I7kZ8iRKZ-47" value="+ sendMessage(message: const CRUMBSMessage&amp;amp;, targetAddress: uint8_t): void" style="text;html=1;strokeColor=none;fillColor=none;align=left;verticalAlign=top;spacingLeft=4;spacingRight=4;whiteSpace=wrap;overflow=hidden;rotatable=0;points=[[0,0.5],[1,0.5]];portConstraint=eastwest;" parent="GCxnZ_K5_v9I7kZ8iRKZ-37" vertex="1">
                    <mxGeometry y="224" width="550" height="26" as="geometry"/>
                </mxCell>
                <mxCell id="GCxnZ_K5_v9I7kZ8iRKZ-48" value="+ receiveMessage(message: CRUMBSMessage&amp;amp;): void" style="text;html=1;strokeColor=none;fillColor=none;align=left;verticalAlign=top;spacingLeft=4;spacingRight=4;whiteSpace=wrap;overflow=hidden;rotatable=0;points=[[0,0.5],[1,0.5]];portConstraint=eastwest;" parent="GCxnZ_K5_v9I7kZ8iRKZ-37" vertex="1">
                    <mxGeometry y="250" width="550" height="26" as="geometry"/>
                </mxCell>
                <mxCell id="GCxnZ_K5_v9I7kZ8iRKZ-50" value="+ onReceive(callback: void (*)(CRUMBSMessage &amp;amp;)): void" style="text;html=1;strokeColor=none;fillColor=none;align=left;verticalAlign=top;spacingLeft=4;spacingRight=4;whiteSpace=wrap;overflow=hidden;rotatable=0;points=[[0,0.5],[1,0.5]];portConstraint=eastwest;" parent="GCxnZ_K5_v9I7kZ8iRKZ-37" vertex="1">
                    <mxGeometry y="276" width="550" height="26" as="geometry"/>
                </mxCell>
                <mxCell id="GCxnZ_K5_v9I7kZ8iRKZ-49" value="+ onRequest(callback: void (*)()): void" style="text;html=1;strokeColor=none;fillColor=none;align=left;verticalAlign=top;spacingLeft=4;spacingRight=4;whiteSpace=wrap;overflow=hidden;rotatable=0;points=[[0,0.5],[1,0.5]];portConstraint=eastwest;" parent="GCxnZ_K5_v9I7kZ8iRKZ-37" vertex="1">
                    <mxGeometry y="302" width="550" height="26" as="geometry"/>
                </mxCell>
                <mxCell id="GCxnZ_K5_v9I7kZ8iRKZ-54" value="+ getAddress(): uint8_t" style="text;html=1;strokeColor=none;fillColor=none;align=left;verticalAlign=top;spacingLeft=4;spacingRight=4;whiteSpace=wrap;overflow=hidden;rotatable=0;points=[[0,0.5],[1,0.5]];portConstraint=eastwest;" parent="GCxnZ_K5_v9I7kZ8iRKZ-37" vertex="1">
                    <mxGeometry y="328" width="550" height="26" as="geometry"/>
                </mxCell>
                <mxCell id="GCxnZ_K5_v9I7kZ8iRKZ-55" value="+ encodeMessage(message: const CRUMBSMessage&amp;amp;, buffer: uint8_t*, bufferSize: size_t): size_t" style="text;html=1;strokeColor=none;fillColor=none;align=left;verticalAlign=top;spacingLeft=4;spacingRight=4;whiteSpace=wrap;overflow=hidden;rotatable=0;points=[[0,0.5],[1,0.5]];portConstraint=eastwest;" parent="GCxnZ_K5_v9I7kZ8iRKZ-37" vertex="1">
                    <mxGeometry y="354" width="550" height="26" as="geometry"/>
                </mxCell>
                <mxCell id="GCxnZ_K5_v9I7kZ8iRKZ-56" value="+ decodeMessage(buffer: const uint8_t*, bufferSize: size_t, message: CRUMBSMessage&amp;amp;): bool" style="text;html=1;strokeColor=none;fillColor=none;align=left;verticalAlign=top;spacingLeft=4;spacingRight=4;whiteSpace=wrap;overflow=hidden;rotatable=0;points=[[0,0.5],[1,0.5]];portConstraint=eastwest;" parent="GCxnZ_K5_v9I7kZ8iRKZ-37" vertex="1">
                    <mxGeometry y="380" width="550" height="26" as="geometry"/>
                </mxCell>
                <mxCell id="GCxnZ_K5_v9I7kZ8iRKZ-61" value="" style="line;html=1;strokeWidth=1;fillColor=none;align=left;verticalAlign=middle;spacingTop=-1;spacingLeft=3;spacingRight=3;rotatable=0;labelPosition=right;points=[];portConstraint=eastwest;" parent="GCxnZ_K5_v9I7kZ8iRKZ-37" vertex="1">
                    <mxGeometry y="406" width="550" height="8" as="geometry"/>
                </mxCell>
                <mxCell id="GCxnZ_K5_v9I7kZ8iRKZ-57" value="_ receiveEvent(bytes: int): void" style="text;html=1;strokeColor=none;fillColor=none;align=left;verticalAlign=top;spacingLeft=4;spacingRight=4;whiteSpace=wrap;overflow=hidden;rotatable=0;points=[[0,0.5],[1,0.5]];portConstraint=eastwest;" parent="GCxnZ_K5_v9I7kZ8iRKZ-37" vertex="1">
                    <mxGeometry y="414" width="550" height="26" as="geometry"/>
                </mxCell>
                <mxCell id="GCxnZ_K5_v9I7kZ8iRKZ-58" value="_ requestEvent(): void&amp;nbsp;" style="text;html=1;strokeColor=none;fillColor=none;align=left;verticalAlign=top;spacingLeft=4;spacingRight=4;whiteSpace=wrap;overflow=hidden;rotatable=0;points=[[0,0.5],[1,0.5]];portConstraint=eastwest;" parent="GCxnZ_K5_v9I7kZ8iRKZ-37" vertex="1">
                    <mxGeometry y="440" width="550" height="26" as="geometry"/>
                </mxCell>
                <mxCell id="GCxnZ_K5_v9I7kZ8iRKZ-64" value="&lt;font style=&quot;font-size: 50px;&quot;&gt;&lt;b&gt;&lt;u&gt;Classes / Files&lt;/u&gt;&lt;/b&gt;&lt;/font&gt;" style="rounded=1;whiteSpace=wrap;html=1;fillColor=#f8cecc;strokeColor=#b85450;" parent="1" vertex="1">
                    <mxGeometry x="55" y="20" width="740" height="90" as="geometry"/>
                </mxCell>
                <mxCell id="GCxnZ_K5_v9I7kZ8iRKZ-65" value="&lt;font style=&quot;font-size: 50px;&quot;&gt;&lt;b&gt;&lt;u&gt;Data Flow&lt;/u&gt;&lt;/b&gt;&lt;/font&gt;" style="rounded=1;whiteSpace=wrap;html=1;fillColor=#f8cecc;strokeColor=#b85450;" parent="1" vertex="1">
                    <mxGeometry x="1755" y="20" width="740" height="90" as="geometry"/>
                </mxCell>
                <mxCell id="GCxnZ_K5_v9I7kZ8iRKZ-66" value="" style="endArrow=none;html=1;rounded=0;strokeWidth=4;movable=1;resizable=1;rotatable=1;deletable=1;editable=1;locked=0;connectable=1;" parent="1" edge="1">
                    <mxGeometry width="50" height="50" relative="1" as="geometry">
                        <mxPoint x="850" y="1090" as="sourcePoint"/>
                        <mxPoint x="850" y="10" as="targetPoint"/>
                    </mxGeometry>
                </mxCell>
                <mxCell id="GCxnZ_K5_v9I7kZ8iRKZ-70" value="&lt;span style=&quot;color: rgb(0, 0, 0); font-family: Verdana; font-style: normal; font-variant-ligatures: normal; font-variant-caps: normal; letter-spacing: normal; orphans: 2; text-indent: 0px; text-transform: none; widows: 2; word-spacing: 0px; -webkit-text-stroke-width: 0px; white-space: nowrap; text-decoration-thickness: initial; text-decoration-style: initial; text-decoration-color: initial; float: none; display: inline !important;&quot;&gt;CRUMBS&lt;/span&gt;" style="text;whiteSpace=wrap;html=1;align=center;fontSize=15;fontStyle=1;labelBackgroundColor=none;" parent="1" vertex="1">
                    <mxGeometry x="2315" y="180" width="140" height="40" as="geometry"/>
                </mxCell>
                <mxCell id="GCxnZ_K5_v9I7kZ8iRKZ-71" value="" style="rounded=0;whiteSpace=wrap;html=1;fillColor=#ffe6cc;strokeColor=#d79b00;movable=0;resizable=0;rotatable=0;deletable=0;editable=0;locked=1;connectable=0;" parent="1" vertex="1">
                    <mxGeometry x="870" y="180" width="830" height="550" as="geometry"/>
                </mxCell>
                <mxCell id="GCxnZ_K5_v9I7kZ8iRKZ-72" value="" style="rounded=0;whiteSpace=wrap;html=1;fillColor=#fff2cc;strokeColor=#d6b656;movable=0;resizable=0;rotatable=0;deletable=0;editable=0;locked=1;connectable=0;" parent="1" vertex="1">
                    <mxGeometry x="3065" y="180" width="310" height="550" as="geometry"/>
                </mxCell>
                <mxCell id="GCxnZ_K5_v9I7kZ8iRKZ-73" value="&lt;span style=&quot;color: rgb(0, 0, 0); font-family: Verdana; font-style: normal; font-variant-ligatures: normal; font-variant-caps: normal; letter-spacing: normal; orphans: 2; text-indent: 0px; text-transform: none; widows: 2; word-spacing: 0px; -webkit-text-stroke-width: 0px; white-space: nowrap; text-decoration-thickness: initial; text-decoration-style: initial; text-decoration-color: initial; float: none; display: inline !important;&quot;&gt;Controller Sketch&lt;/span&gt;" style="text;whiteSpace=wrap;html=1;align=center;fontSize=15;fontStyle=1;labelBackgroundColor=none;" parent="1" vertex="1">
                    <mxGeometry x="1215" y="180" width="140" height="40" as="geometry"/>
                </mxCell>
                <mxCell id="GCxnZ_K5_v9I7kZ8iRKZ-74" value="&lt;span style=&quot;color: rgb(0, 0, 0); font-family: Verdana; font-style: normal; font-variant-ligatures: normal; font-variant-caps: normal; letter-spacing: normal; orphans: 2; text-indent: 0px; text-transform: none; widows: 2; word-spacing: 0px; -webkit-text-stroke-width: 0px; white-space: nowrap; text-decoration-thickness: initial; text-decoration-style: initial; text-decoration-color: initial; float: none; display: inline !important;&quot;&gt;Peripheral Sketch&lt;/span&gt;" style="text;whiteSpace=wrap;html=1;align=center;fontSize=15;fontStyle=1;labelBackgroundColor=none;" parent="1" vertex="1">
                    <mxGeometry x="3150" y="180" width="140" height="40" as="geometry"/>
                </mxCell>
                <mxCell id="GCxnZ_K5_v9I7kZ8iRKZ-75" value="" style="endArrow=none;html=1;rounded=0;strokeWidth=4;movable=1;resizable=1;rotatable=1;deletable=1;editable=1;locked=0;connectable=1;" parent="1" edge="1">
                    <mxGeometry width="50" height="50" relative="1" as="geometry">
                        <mxPoint x="3400" y="1094" as="sourcePoint"/>
                        <mxPoint x="3400" y="14" as="targetPoint"/>
                    </mxGeometry>
                </mxCell>
                <mxCell id="GCxnZ_K5_v9I7kZ8iRKZ-94" value="" style="edgeStyle=orthogonalEdgeStyle;rounded=0;orthogonalLoop=1;jettySize=auto;html=1;entryX=0.5;entryY=0;entryDx=0;entryDy=0;" parent="1" source="GCxnZ_K5_v9I7kZ8iRKZ-77" target="GCxnZ_K5_v9I7kZ8iRKZ-82" edge="1">
                    <mxGeometry relative="1" as="geometry"/>
                </mxCell>
                <mxCell id="GCxnZ_K5_v9I7kZ8iRKZ-77" value="setup()" style="swimlane;html=1;fontStyle=0;childLayout=stackLayout;horizontal=1;startSize=26;fillColor=#dae8fc;horizontalStack=0;resizeParent=1;resizeLast=0;collapsible=1;marginBottom=0;swimlaneFillColor=#ffffff;align=center;rounded=1;shadow=0;comic=0;labelBackgroundColor=none;strokeWidth=1;fontFamily=Verdana;fontSize=12;strokeColor=#6c8ebf;" parent="1" vertex="1">
                    <mxGeometry x="950" y="341" width="160" height="56" as="geometry"/>
                </mxCell>
                <mxCell id="GCxnZ_K5_v9I7kZ8iRKZ-78" value="crumbsController.begin();" style="text;html=1;strokeColor=none;fillColor=none;spacingLeft=4;spacingRight=4;whiteSpace=wrap;overflow=hidden;rotatable=0;points=[[0,0.5],[1,0.5]];portConstraint=eastwest;" parent="GCxnZ_K5_v9I7kZ8iRKZ-77" vertex="1">
                    <mxGeometry y="26" width="160" height="26" as="geometry"/>
                </mxCell>
                <mxCell id="GCxnZ_K5_v9I7kZ8iRKZ-95" value="" style="edgeStyle=orthogonalEdgeStyle;rounded=0;orthogonalLoop=1;jettySize=auto;html=1;entryX=0.5;entryY=0;entryDx=0;entryDy=0;" parent="1" source="GCxnZ_K5_v9I7kZ8iRKZ-81" target="GCxnZ_K5_v9I7kZ8iRKZ-77" edge="1">
                    <mxGeometry relative="1" as="geometry"/>
                </mxCell>
                <mxCell id="GCxnZ_K5_v9I7kZ8iRKZ-81" value="&lt;div&gt;&lt;font style=&quot;font-size: 11px;&quot;&gt;#include &amp;lt;CRUMBS.h&amp;gt;&lt;/font&gt;&lt;/div&gt;&lt;div&gt;&lt;font style=&quot;font-size: 11px;&quot;&gt;CRUMBS crumbsController(true);&lt;/font&gt;&lt;/div&gt;" style="rounded=1;whiteSpace=wrap;html=1;align=left;" parent="1" vertex="1">
                    <mxGeometry x="950" y="244" width="160" height="60" as="geometry"/>
                </mxCell>
                <mxCell id="GCxnZ_K5_v9I7kZ8iRKZ-101" style="edgeStyle=elbowEdgeStyle;rounded=0;orthogonalLoop=1;jettySize=auto;html=1;" parent="1" edge="1">
                    <mxGeometry relative="1" as="geometry">
                        <mxPoint x="950" y="443.5" as="targetPoint"/>
                        <mxPoint x="950" y="533.5" as="sourcePoint"/>
                        <Array as="points">
                            <mxPoint x="910" y="491"/>
                        </Array>
                    </mxGeometry>
                </mxCell>
                <mxCell id="GCxnZ_K5_v9I7kZ8iRKZ-82" value="loop()" style="swimlane;html=1;fontStyle=0;childLayout=stackLayout;horizontal=1;startSize=26;fillColor=#dae8fc;horizontalStack=0;resizeParent=1;resizeLast=0;collapsible=1;marginBottom=0;swimlaneFillColor=#ffffff;align=center;rounded=1;shadow=0;comic=0;labelBackgroundColor=none;strokeWidth=1;fontFamily=Verdana;fontSize=12;strokeColor=#6c8ebf;" parent="1" vertex="1">
                    <mxGeometry x="950" y="431" width="160" height="119" as="geometry"/>
                </mxCell>
                <mxCell id="GCxnZ_K5_v9I7kZ8iRKZ-83" value="idle();" style="text;html=1;strokeColor=none;fillColor=none;spacingLeft=4;spacingRight=4;whiteSpace=wrap;overflow=hidden;rotatable=0;points=[[0,0.5],[1,0.5]];portConstraint=eastwest;" parent="GCxnZ_K5_v9I7kZ8iRKZ-82" vertex="1">
                    <mxGeometry y="26" width="160" height="26" as="geometry"/>
                </mxCell>
                <mxCell id="GCxnZ_K5_v9I7kZ8iRKZ-84" value="message_handler();" style="text;html=1;strokeColor=none;fillColor=none;spacingLeft=4;spacingRight=4;whiteSpace=wrap;overflow=hidden;rotatable=0;points=[[0,0.5],[1,0.5]];portConstraint=eastwest;" parent="GCxnZ_K5_v9I7kZ8iRKZ-82" vertex="1">
                    <mxGeometry y="52" width="160" height="26" as="geometry"/>
                </mxCell>
                <mxCell id="GCxnZ_K5_v9I7kZ8iRKZ-85" value="run();" style="text;html=1;strokeColor=none;fillColor=none;spacingLeft=4;spacingRight=4;whiteSpace=wrap;overflow=hidden;rotatable=0;points=[[0,0.5],[1,0.5]];portConstraint=eastwest;" parent="GCxnZ_K5_v9I7kZ8iRKZ-82" vertex="1">
                    <mxGeometry y="78" width="160" height="26" as="geometry"/>
                </mxCell>
                <mxCell id="GCxnZ_K5_v9I7kZ8iRKZ-102" value="idle()" style="swimlane;html=1;fontStyle=0;childLayout=stackLayout;horizontal=1;startSize=26;fillColor=#dae8fc;horizontalStack=0;resizeParent=1;resizeLast=0;collapsible=1;marginBottom=0;swimlaneFillColor=#ffffff;align=center;rounded=1;shadow=0;comic=0;labelBackgroundColor=none;strokeWidth=1;fontFamily=Verdana;fontSize=12;strokeColor=#6c8ebf;" parent="1" vertex="1">
                    <mxGeometry x="1195" y="341" width="160" height="78" as="geometry"/>
                </mxCell>
                <mxCell id="GCxnZ_K5_v9I7kZ8iRKZ-103" value="d" style="text;html=1;strokeColor=none;fillColor=none;spacingLeft=4;spacingRight=4;whiteSpace=wrap;overflow=hidden;rotatable=0;points=[[0,0.5],[1,0.5]];portConstraint=eastwest;" parent="GCxnZ_K5_v9I7kZ8iRKZ-102" vertex="1">
                    <mxGeometry y="26" width="160" height="26" as="geometry"/>
                </mxCell>
                <mxCell id="GCxnZ_K5_v9I7kZ8iRKZ-104" value="d" style="text;html=1;strokeColor=none;fillColor=none;spacingLeft=4;spacingRight=4;whiteSpace=wrap;overflow=hidden;rotatable=0;points=[[0,0.5],[1,0.5]];portConstraint=eastwest;" parent="GCxnZ_K5_v9I7kZ8iRKZ-102" vertex="1">
                    <mxGeometry y="52" width="160" height="26" as="geometry"/>
                </mxCell>
                <mxCell id="GCxnZ_K5_v9I7kZ8iRKZ-106" value="message_handler()" style="swimlane;html=1;fontStyle=0;childLayout=stackLayout;horizontal=1;startSize=26;fillColor=#dae8fc;horizontalStack=0;resizeParent=1;resizeLast=0;collapsible=1;marginBottom=0;swimlaneFillColor=#ffffff;align=center;rounded=1;shadow=0;comic=0;labelBackgroundColor=none;strokeWidth=1;fontFamily=Verdana;fontSize=12;strokeColor=#6c8ebf;" parent="1" vertex="1">
                    <mxGeometry x="1195" y="436.5" width="160" height="104" as="geometry"/>
                </mxCell>
                <mxCell id="GCxnZ_K5_v9I7kZ8iRKZ-107" value="d" style="text;html=1;strokeColor=none;fillColor=none;spacingLeft=4;spacingRight=4;whiteSpace=wrap;overflow=hidden;rotatable=0;points=[[0,0.5],[1,0.5]];portConstraint=eastwest;" parent="GCxnZ_K5_v9I7kZ8iRKZ-106" vertex="1">
                    <mxGeometry y="26" width="160" height="26" as="geometry"/>
                </mxCell>
                <mxCell id="GCxnZ_K5_v9I7kZ8iRKZ-122" value="d" style="text;html=1;strokeColor=none;fillColor=none;spacingLeft=4;spacingRight=4;whiteSpace=wrap;overflow=hidden;rotatable=0;points=[[0,0.5],[1,0.5]];portConstraint=eastwest;" parent="GCxnZ_K5_v9I7kZ8iRKZ-106" vertex="1">
                    <mxGeometry y="52" width="160" height="26" as="geometry"/>
                </mxCell>
                <mxCell id="GCxnZ_K5_v9I7kZ8iRKZ-108" value="d" style="text;html=1;strokeColor=none;fillColor=none;spacingLeft=4;spacingRight=4;whiteSpace=wrap;overflow=hidden;rotatable=0;points=[[0,0.5],[1,0.5]];portConstraint=eastwest;" parent="GCxnZ_K5_v9I7kZ8iRKZ-106" vertex="1">
                    <mxGeometry y="78" width="160" height="26" as="geometry"/>
                </mxCell>
                <mxCell id="GCxnZ_K5_v9I7kZ8iRKZ-110" value="run()" style="swimlane;html=1;fontStyle=0;childLayout=stackLayout;horizontal=1;startSize=26;fillColor=#dae8fc;horizontalStack=0;resizeParent=1;resizeLast=0;collapsible=1;marginBottom=0;swimlaneFillColor=#ffffff;align=center;rounded=1;shadow=0;comic=0;labelBackgroundColor=none;strokeWidth=1;fontFamily=Verdana;fontSize=12;strokeColor=#6c8ebf;" parent="1" vertex="1">
                    <mxGeometry x="1195" y="560" width="160" height="80" as="geometry"/>
                </mxCell>
                <mxCell id="GCxnZ_K5_v9I7kZ8iRKZ-111" value="d" style="text;html=1;strokeColor=none;fillColor=none;spacingLeft=4;spacingRight=4;whiteSpace=wrap;overflow=hidden;rotatable=0;points=[[0,0.5],[1,0.5]];portConstraint=eastwest;" parent="GCxnZ_K5_v9I7kZ8iRKZ-110" vertex="1">
                    <mxGeometry y="26" width="160" height="26" as="geometry"/>
                </mxCell>
                <mxCell id="GCxnZ_K5_v9I7kZ8iRKZ-112" value="d" style="text;html=1;strokeColor=none;fillColor=none;spacingLeft=4;spacingRight=4;whiteSpace=wrap;overflow=hidden;rotatable=0;points=[[0,0.5],[1,0.5]];portConstraint=eastwest;" parent="GCxnZ_K5_v9I7kZ8iRKZ-110" vertex="1">
                    <mxGeometry y="52" width="160" height="26" as="geometry"/>
                </mxCell>
                <mxCell id="GCxnZ_K5_v9I7kZ8iRKZ-116" style="rounded=0;orthogonalLoop=1;jettySize=auto;html=1;entryX=0;entryY=0.5;entryDx=0;entryDy=0;exitX=1;exitY=0.25;exitDx=0;exitDy=0;edgeStyle=elbowEdgeStyle;" parent="1" source="GCxnZ_K5_v9I7kZ8iRKZ-82" target="GCxnZ_K5_v9I7kZ8iRKZ-103" edge="1">
                    <mxGeometry relative="1" as="geometry">
                        <Array as="points">
                            <mxPoint x="1130" y="430"/>
                        </Array>
                    </mxGeometry>
                </mxCell>
                <mxCell id="GCxnZ_K5_v9I7kZ8iRKZ-117" style="rounded=0;orthogonalLoop=1;jettySize=auto;html=1;entryX=1;entryY=0.5;entryDx=0;entryDy=0;exitX=0;exitY=0.5;exitDx=0;exitDy=0;edgeStyle=elbowEdgeStyle;" parent="1" source="GCxnZ_K5_v9I7kZ8iRKZ-104" target="GCxnZ_K5_v9I7kZ8iRKZ-83" edge="1">
                    <mxGeometry relative="1" as="geometry">
                        <mxPoint x="1150" y="455" as="sourcePoint"/>
                        <Array as="points">
                            <mxPoint x="1150" y="450"/>
                        </Array>
                    </mxGeometry>
                </mxCell>
                <mxCell id="GCxnZ_K5_v9I7kZ8iRKZ-118" style="rounded=0;orthogonalLoop=1;jettySize=auto;html=1;exitX=1;exitY=0.5;exitDx=0;exitDy=0;entryX=0;entryY=0.5;entryDx=0;entryDy=0;edgeStyle=elbowEdgeStyle;" parent="1" source="GCxnZ_K5_v9I7kZ8iRKZ-84" target="GCxnZ_K5_v9I7kZ8iRKZ-107" edge="1">
                    <mxGeometry relative="1" as="geometry">
                        <Array as="points">
                            <mxPoint x="1160" y="490"/>
                        </Array>
                    </mxGeometry>
                </mxCell>
                <mxCell id="GCxnZ_K5_v9I7kZ8iRKZ-119" style="rounded=0;orthogonalLoop=1;jettySize=auto;html=1;entryX=0.987;entryY=0.953;entryDx=0;entryDy=0;entryPerimeter=0;exitX=0;exitY=0.5;exitDx=0;exitDy=0;edgeStyle=elbowEdgeStyle;" parent="1" source="GCxnZ_K5_v9I7kZ8iRKZ-108" target="GCxnZ_K5_v9I7kZ8iRKZ-84" edge="1">
                    <mxGeometry relative="1" as="geometry">
                        <Array as="points">
                            <mxPoint x="1160" y="510"/>
                        </Array>
                    </mxGeometry>
                </mxCell>
                <mxCell id="GCxnZ_K5_v9I7kZ8iRKZ-120" style="rounded=0;orthogonalLoop=1;jettySize=auto;html=1;exitX=1;exitY=0.5;exitDx=0;exitDy=0;entryX=0;entryY=0.5;entryDx=0;entryDy=0;edgeStyle=elbowEdgeStyle;" parent="1" source="GCxnZ_K5_v9I7kZ8iRKZ-85" target="GCxnZ_K5_v9I7kZ8iRKZ-110" edge="1">
                    <mxGeometry relative="1" as="geometry">
                        <Array as="points">
                            <mxPoint x="1150" y="560"/>
                        </Array>
                    </mxGeometry>
                </mxCell>
                <mxCell id="GCxnZ_K5_v9I7kZ8iRKZ-121" style="rounded=0;orthogonalLoop=1;jettySize=auto;html=1;exitX=0;exitY=0.5;exitDx=0;exitDy=0;edgeStyle=elbowEdgeStyle;" parent="1" source="GCxnZ_K5_v9I7kZ8iRKZ-112" edge="1">
                    <mxGeometry relative="1" as="geometry">
                        <mxPoint x="1110" y="540" as="targetPoint"/>
                        <Array as="points">
                            <mxPoint x="1130" y="580"/>
                        </Array>
                    </mxGeometry>
                </mxCell>
                <mxCell id="2" value="" style="endArrow=none;html=1;rounded=0;strokeWidth=4;movable=1;resizable=1;rotatable=1;deletable=1;editable=1;locked=0;connectable=1;" edge="1" parent="1">
                    <mxGeometry width="50" height="50" relative="1" as="geometry">
                        <mxPoint y="1090" as="sourcePoint"/>
                        <mxPoint y="10" as="targetPoint"/>
                    </mxGeometry>
                </mxCell>
                <mxCell id="3" value="&lt;div style=&quot;color: rgb(204, 204, 204); background-color: rgb(31, 31, 31); font-family: Consolas, &amp;quot;Courier New&amp;quot;, monospace; font-weight: normal; font-size: 14px; line-height: 19px; white-space: pre;&quot;&gt;&lt;div&gt;&lt;span style=&quot;color: rgb(86, 156, 214);&quot;&gt;struct&lt;/span&gt;&lt;span style=&quot;color: rgb(204, 204, 204);&quot;&gt; &lt;/span&gt;&lt;span style=&quot;color: rgb(78, 201, 176);&quot;&gt;CRUMBSMessage&lt;/span&gt;&lt;/div&gt;&lt;div&gt;&lt;span style=&quot;color: rgb(204, 204, 204);&quot;&gt;{&lt;/span&gt;&lt;/div&gt;&lt;div&gt;&lt;span style=&quot;color: rgb(204, 204, 204);&quot;&gt;&amp;nbsp; &amp;nbsp; &lt;/span&gt;&lt;span style=&quot;color: rgb(78, 201, 176);&quot;&gt;uint8_t&lt;/span&gt;&lt;span style=&quot;color: rgb(204, 204, 204);&quot;&gt; &lt;/span&gt;&lt;span style=&quot;color: rgb(156, 220, 254);&quot;&gt;sliceAddress&lt;/span&gt;&lt;span style=&quot;color: rgb(204, 204, 204);&quot;&gt;;&lt;/span&gt;&lt;span style=&quot;color: rgb(106, 153, 85);&quot;&gt; /**&amp;lt; Unique identifier for the target slice */&lt;/span&gt;&lt;/div&gt;&lt;div&gt;&lt;span style=&quot;color: rgb(204, 204, 204);&quot;&gt;&amp;nbsp; &amp;nbsp; &lt;/span&gt;&lt;span style=&quot;color: rgb(78, 201, 176);&quot;&gt;uint8_t&lt;/span&gt;&lt;span style=&quot;color: rgb(204, 204, 204);&quot;&gt; &lt;/span&gt;&lt;span style=&quot;color: rgb(156, 220, 254);&quot;&gt;typeID&lt;/span&gt;&lt;span style=&quot;color: rgb(204, 204, 204);&quot;&gt;;&lt;/span&gt;&lt;span style=&quot;color: rgb(106, 153, 85);&quot;&gt; &amp;nbsp; &amp;nbsp; &amp;nbsp; /**&amp;lt; Identifier for the module type */&lt;/span&gt;&lt;/div&gt;&lt;div&gt;&lt;span style=&quot;color: rgb(204, 204, 204);&quot;&gt;&amp;nbsp; &amp;nbsp; &lt;/span&gt;&lt;span style=&quot;color: rgb(78, 201, 176);&quot;&gt;uint8_t&lt;/span&gt;&lt;span style=&quot;color: rgb(204, 204, 204);&quot;&gt; &lt;/span&gt;&lt;span style=&quot;color: rgb(156, 220, 254);&quot;&gt;commandType&lt;/span&gt;&lt;span style=&quot;color: rgb(204, 204, 204);&quot;&gt;;&lt;/span&gt;&lt;span style=&quot;color: rgb(106, 153, 85);&quot;&gt; &amp;nbsp;/**&amp;lt; Command or action identifier */&lt;/span&gt;&lt;/div&gt;&lt;div&gt;&lt;span style=&quot;color: rgb(204, 204, 204);&quot;&gt;&amp;nbsp; &amp;nbsp; &lt;/span&gt;&lt;span style=&quot;color: rgb(86, 156, 214);&quot;&gt;float&lt;/span&gt;&lt;span style=&quot;color: rgb(204, 204, 204);&quot;&gt; &lt;/span&gt;&lt;span style=&quot;color: rgb(156, 220, 254);&quot;&gt;data&lt;/span&gt;&lt;span style=&quot;color: rgb(204, 204, 204);&quot;&gt;[&lt;/span&gt;&lt;span style=&quot;color: rgb(181, 206, 168);&quot;&gt;7&lt;/span&gt;&lt;span style=&quot;color: rgb(204, 204, 204);&quot;&gt;];&lt;/span&gt;&lt;span style=&quot;color: rgb(106, 153, 85);&quot;&gt; &amp;nbsp; &amp;nbsp; &amp;nbsp; &amp;nbsp;/**&amp;lt; Payload data (6 floating-point values) */&lt;/span&gt;&lt;/div&gt;&lt;div&gt;&lt;span style=&quot;color: rgb(204, 204, 204);&quot;&gt;&amp;nbsp; &amp;nbsp; &lt;/span&gt;&lt;span style=&quot;color: rgb(78, 201, 176);&quot;&gt;uint8_t&lt;/span&gt;&lt;span style=&quot;color: rgb(204, 204, 204);&quot;&gt; &lt;/span&gt;&lt;span style=&quot;color: rgb(156, 220, 254);&quot;&gt;statusFlags&lt;/span&gt;&lt;span style=&quot;color: rgb(204, 204, 204);&quot;&gt;;&lt;/span&gt;&lt;span style=&quot;color: rgb(106, 153, 85);&quot;&gt; &amp;nbsp; /**&amp;lt; Error or status flags */&lt;/span&gt;&lt;/div&gt;&lt;div&gt;&lt;span style=&quot;color: rgb(204, 204, 204);&quot;&gt;};&lt;/span&gt;&lt;/div&gt;&lt;div&gt;&lt;span style=&quot;color: rgb(204, 204, 204);&quot;&gt;&lt;div style=&quot;color: rgb(204, 204, 204); line-height: 19px;&quot;&gt;&lt;br&gt;&lt;div&gt;&lt;span style=&quot;color: rgb(106, 153, 85);&quot;&gt;/**&lt;/span&gt;&lt;/div&gt;&lt;div&gt;&lt;span style=&quot;color: rgb(106, 153, 85);&quot;&gt;&amp;nbsp;* &lt;/span&gt;&lt;span style=&quot;color: rgb(86, 156, 214);&quot;&gt;@brief&lt;/span&gt;&lt;span style=&quot;color: rgb(106, 153, 85);&quot;&gt; Size of the CRUMBSMessage structure in bytes.&lt;/span&gt;&lt;/div&gt;&lt;div&gt;&lt;span style=&quot;color: rgb(106, 153, 85);&quot;&gt;&amp;nbsp;*&lt;/span&gt;&lt;/div&gt;&lt;div&gt;&lt;span style=&quot;color: rgb(106, 153, 85);&quot;&gt;&amp;nbsp;* &lt;/span&gt;&lt;span style=&quot;color: rgb(86, 156, 214);&quot;&gt;@note&lt;/span&gt;&lt;span style=&quot;color: rgb(106, 153, 85);&quot;&gt; Calculated as: 1 + 1 + 24 (7 floats) + 1 = 31 bytes&lt;/span&gt;&lt;/div&gt;&lt;div&gt;&lt;span style=&quot;color: rgb(106, 153, 85);&quot;&gt;&amp;nbsp;*/&lt;/span&gt;&lt;/div&gt;&lt;br&gt;&lt;div&gt;&lt;span style=&quot;color: rgb(197, 134, 192);&quot;&gt;#define&lt;/span&gt;&lt;span style=&quot;color: rgb(86, 156, 214);&quot;&gt; &lt;/span&gt;&lt;span style=&quot;color: rgb(86, 156, 214);&quot;&gt;CRUMBS_MESSAGE_SIZE&lt;/span&gt;&lt;span style=&quot;color: rgb(86, 156, 214);&quot;&gt; &lt;/span&gt;&lt;span style=&quot;color: rgb(181, 206, 168);&quot;&gt;31&lt;/span&gt;&lt;/div&gt;&lt;br&gt;&lt;/div&gt;&lt;/span&gt;&lt;/div&gt;&lt;/div&gt;" style="text;whiteSpace=wrap;html=1;" vertex="1" parent="1">
                    <mxGeometry x="-710" y="30" width="560" height="180" as="geometry"/>
                </mxCell>
                <mxCell id="311" value="" style="group;fillColor=#d5e8d4;strokeColor=#82b366;" vertex="1" connectable="0" parent="1">
                    <mxGeometry x="-750" y="440" width="80" height="80" as="geometry"/>
                </mxCell>
                <mxCell id="290" value="" style="whiteSpace=wrap;html=1;aspect=fixed;strokeWidth=3;fillColor=#d5e8d4;strokeColor=#82b366;container=0;" vertex="1" parent="311">
                    <mxGeometry width="80" height="80" as="geometry"/>
                </mxCell>
                <mxCell id="312" value="" style="shape=curlyBracket;whiteSpace=wrap;html=1;rounded=1;labelPosition=left;verticalLabelPosition=middle;align=right;verticalAlign=middle;rotation=90;strokeWidth=2;strokeColor=#690000;" vertex="1" parent="1">
                    <mxGeometry x="-640" y="390" width="20" height="80" as="geometry"/>
                </mxCell>
                <mxCell id="313" value="" style="group" vertex="1" connectable="0" parent="1">
                    <mxGeometry x="-670" y="440" width="80" height="80" as="geometry"/>
                </mxCell>
                <mxCell id="314" value="" style="group;fillColor=#008a00;fontColor=#ffffff;strokeColor=light-dark(#000000, #82cd82);container=0;" vertex="1" connectable="0" parent="313">
                    <mxGeometry width="40" height="40" as="geometry"/>
                </mxCell>
                <mxCell id="315" value="" style="whiteSpace=wrap;html=1;aspect=fixed;strokeWidth=3;fillColor=#0050ef;fontColor=#ffffff;strokeColor=light-dark(#0026ff, #b2cbff);container=0;" vertex="1" parent="313">
                    <mxGeometry width="80" height="80" as="geometry"/>
                </mxCell>
                <mxCell id="316" value="" style="rounded=0;whiteSpace=wrap;html=1;fillColor=#008a00;fontColor=#ffffff;strokeColor=light-dark(#000000, #82cd82);container=0;" vertex="1" parent="313">
                    <mxGeometry width="10" height="80" as="geometry"/>
                </mxCell>
                <mxCell id="317" value="" style="rounded=0;whiteSpace=wrap;html=1;fillColor=#008a00;fontColor=#ffffff;strokeColor=light-dark(#000000, #82cd82);container=0;" vertex="1" parent="313">
                    <mxGeometry x="10" width="10" height="80" as="geometry"/>
                </mxCell>
                <mxCell id="318" value="" style="rounded=0;whiteSpace=wrap;html=1;fillColor=#008a00;fontColor=#ffffff;strokeColor=light-dark(#000000, #82cd82);container=0;" vertex="1" parent="313">
                    <mxGeometry x="20" width="10" height="80" as="geometry"/>
                </mxCell>
                <mxCell id="319" value="" style="rounded=0;whiteSpace=wrap;html=1;fillColor=#008a00;fontColor=#ffffff;strokeColor=light-dark(#000000, #82cd82);container=0;" vertex="1" parent="313">
                    <mxGeometry x="30" width="10" height="80" as="geometry"/>
                </mxCell>
                <mxCell id="320" value="" style="rounded=1;whiteSpace=wrap;html=1;fillColor=#008a00;fontColor=#ffffff;strokeColor=light-dark(#000000, #82cd82);container=0;" vertex="1" parent="313">
                    <mxGeometry x="40" width="10" height="80" as="geometry"/>
                </mxCell>
                <mxCell id="321" value="" style="rounded=1;whiteSpace=wrap;html=1;fillColor=#008a00;fontColor=#ffffff;strokeColor=light-dark(#000000, #82cd82);container=0;" vertex="1" parent="313">
                    <mxGeometry x="50" width="10" height="80" as="geometry"/>
                </mxCell>
                <mxCell id="322" value="" style="rounded=1;whiteSpace=wrap;html=1;fillColor=#008a00;fontColor=#ffffff;strokeColor=light-dark(#000000, #82cd82);container=0;" vertex="1" parent="313">
                    <mxGeometry x="60" width="10" height="80" as="geometry"/>
                </mxCell>
                <mxCell id="323" value="" style="rounded=1;whiteSpace=wrap;html=1;fillColor=#008a00;fontColor=#ffffff;strokeColor=light-dark(#000000, #82cd82);container=0;" vertex="1" parent="313">
                    <mxGeometry x="70" width="10" height="80" as="geometry"/>
                </mxCell>
                <mxCell id="324" value="" style="shape=curlyBracket;whiteSpace=wrap;html=1;rounded=1;labelPosition=left;verticalLabelPosition=middle;align=right;verticalAlign=middle;rotation=90;strokeWidth=2;strokeColor=#690000;" vertex="1" parent="1">
                    <mxGeometry x="-560" y="390" width="20" height="80" as="geometry"/>
                </mxCell>
                <mxCell id="325" value="" style="group" vertex="1" connectable="0" parent="1">
                    <mxGeometry x="-590" y="440" width="80" height="80" as="geometry"/>
                </mxCell>
                <mxCell id="326" value="" style="group;fillColor=#008a00;fontColor=#ffffff;strokeColor=light-dark(#000000, #82cd82);container=0;" vertex="1" connectable="0" parent="325">
                    <mxGeometry width="40" height="40" as="geometry"/>
                </mxCell>
                <mxCell id="327" value="" style="whiteSpace=wrap;html=1;aspect=fixed;strokeWidth=3;fillColor=#0050ef;fontColor=#ffffff;strokeColor=light-dark(#0026ff, #b2cbff);container=0;" vertex="1" parent="325">
                    <mxGeometry width="80" height="80" as="geometry"/>
                </mxCell>
                <mxCell id="328" value="" style="rounded=0;whiteSpace=wrap;html=1;fillColor=#008a00;fontColor=#ffffff;strokeColor=light-dark(#000000, #82cd82);container=0;" vertex="1" parent="325">
                    <mxGeometry width="10" height="80" as="geometry"/>
                </mxCell>
                <mxCell id="329" value="" style="rounded=0;whiteSpace=wrap;html=1;fillColor=#008a00;fontColor=#ffffff;strokeColor=light-dark(#000000, #82cd82);container=0;" vertex="1" parent="325">
                    <mxGeometry x="10" width="10" height="80" as="geometry"/>
                </mxCell>
                <mxCell id="330" value="" style="rounded=0;whiteSpace=wrap;html=1;fillColor=#008a00;fontColor=#ffffff;strokeColor=light-dark(#000000, #82cd82);container=0;" vertex="1" parent="325">
                    <mxGeometry x="20" width="10" height="80" as="geometry"/>
                </mxCell>
                <mxCell id="331" value="" style="rounded=0;whiteSpace=wrap;html=1;fillColor=#008a00;fontColor=#ffffff;strokeColor=light-dark(#000000, #82cd82);container=0;" vertex="1" parent="325">
                    <mxGeometry x="30" width="10" height="80" as="geometry"/>
                </mxCell>
                <mxCell id="332" value="" style="rounded=1;whiteSpace=wrap;html=1;fillColor=#008a00;fontColor=#ffffff;strokeColor=light-dark(#000000, #82cd82);container=0;" vertex="1" parent="325">
                    <mxGeometry x="40" width="10" height="80" as="geometry"/>
                </mxCell>
                <mxCell id="333" value="" style="rounded=1;whiteSpace=wrap;html=1;fillColor=#008a00;fontColor=#ffffff;strokeColor=light-dark(#000000, #82cd82);container=0;" vertex="1" parent="325">
                    <mxGeometry x="50" width="10" height="80" as="geometry"/>
                </mxCell>
                <mxCell id="334" value="" style="rounded=1;whiteSpace=wrap;html=1;fillColor=#008a00;fontColor=#ffffff;strokeColor=light-dark(#000000, #82cd82);container=0;" vertex="1" parent="325">
                    <mxGeometry x="60" width="10" height="80" as="geometry"/>
                </mxCell>
                <mxCell id="335" value="" style="rounded=1;whiteSpace=wrap;html=1;fillColor=#008a00;fontColor=#ffffff;strokeColor=light-dark(#000000, #82cd82);container=0;" vertex="1" parent="325">
                    <mxGeometry x="70" width="10" height="80" as="geometry"/>
                </mxCell>
                <mxCell id="336" value="" style="shape=curlyBracket;whiteSpace=wrap;html=1;rounded=1;labelPosition=left;verticalLabelPosition=middle;align=right;verticalAlign=middle;rotation=90;strokeWidth=2;strokeColor=#690000;" vertex="1" parent="1">
                    <mxGeometry x="-280" y="270" width="20" height="320" as="geometry"/>
                </mxCell>
                <mxCell id="337" value="" style="group" vertex="1" connectable="0" parent="1">
                    <mxGeometry x="-510" y="440" width="80" height="80" as="geometry"/>
                </mxCell>
                <mxCell id="338" value="" style="group;fillColor=#008a00;fontColor=#ffffff;strokeColor=light-dark(#000000, #82cd82);container=0;" vertex="1" connectable="0" parent="337">
                    <mxGeometry width="40" height="40" as="geometry"/>
                </mxCell>
                <mxCell id="339" value="" style="whiteSpace=wrap;html=1;aspect=fixed;strokeWidth=3;fillColor=#0050ef;fontColor=#ffffff;strokeColor=light-dark(#0026ff, #b2cbff);container=0;" vertex="1" parent="337">
                    <mxGeometry width="80" height="80" as="geometry"/>
                </mxCell>
                <mxCell id="340" value="" style="rounded=0;whiteSpace=wrap;html=1;fillColor=#008a00;fontColor=#ffffff;strokeColor=light-dark(#000000, #82cd82);container=0;" vertex="1" parent="337">
                    <mxGeometry width="10" height="80" as="geometry"/>
                </mxCell>
                <mxCell id="341" value="" style="rounded=0;whiteSpace=wrap;html=1;fillColor=#008a00;fontColor=#ffffff;strokeColor=light-dark(#000000, #82cd82);container=0;" vertex="1" parent="337">
                    <mxGeometry x="10" width="10" height="80" as="geometry"/>
                </mxCell>
                <mxCell id="342" value="" style="rounded=0;whiteSpace=wrap;html=1;fillColor=#008a00;fontColor=#ffffff;strokeColor=light-dark(#000000, #82cd82);container=0;" vertex="1" parent="337">
                    <mxGeometry x="20" width="10" height="80" as="geometry"/>
                </mxCell>
                <mxCell id="343" value="" style="rounded=0;whiteSpace=wrap;html=1;fillColor=#008a00;fontColor=#ffffff;strokeColor=light-dark(#000000, #82cd82);container=0;" vertex="1" parent="337">
                    <mxGeometry x="30" width="10" height="80" as="geometry"/>
                </mxCell>
                <mxCell id="344" value="" style="rounded=1;whiteSpace=wrap;html=1;fillColor=#008a00;fontColor=#ffffff;strokeColor=light-dark(#000000, #82cd82);container=0;" vertex="1" parent="337">
                    <mxGeometry x="40" width="10" height="80" as="geometry"/>
                </mxCell>
                <mxCell id="345" value="" style="rounded=1;whiteSpace=wrap;html=1;fillColor=#008a00;fontColor=#ffffff;strokeColor=light-dark(#000000, #82cd82);container=0;" vertex="1" parent="337">
                    <mxGeometry x="50" width="10" height="80" as="geometry"/>
                </mxCell>
                <mxCell id="346" value="" style="rounded=1;whiteSpace=wrap;html=1;fillColor=#008a00;fontColor=#ffffff;strokeColor=light-dark(#000000, #82cd82);container=0;" vertex="1" parent="337">
                    <mxGeometry x="60" width="10" height="80" as="geometry"/>
                </mxCell>
                <mxCell id="347" value="" style="rounded=1;whiteSpace=wrap;html=1;fillColor=#008a00;fontColor=#ffffff;strokeColor=light-dark(#000000, #82cd82);container=0;" vertex="1" parent="337">
                    <mxGeometry x="70" width="10" height="80" as="geometry"/>
                </mxCell>
                <mxCell id="348" value="" style="group" vertex="1" connectable="0" parent="1">
                    <mxGeometry x="-430" y="440" width="80" height="80" as="geometry"/>
                </mxCell>
                <mxCell id="349" value="" style="group;fillColor=#008a00;fontColor=#ffffff;strokeColor=light-dark(#000000, #82cd82);container=0;" vertex="1" connectable="0" parent="348">
                    <mxGeometry width="40" height="40" as="geometry"/>
                </mxCell>
                <mxCell id="350" value="" style="whiteSpace=wrap;html=1;aspect=fixed;strokeWidth=3;fillColor=#0050ef;fontColor=#ffffff;strokeColor=light-dark(#0026ff, #b2cbff);container=0;" vertex="1" parent="348">
                    <mxGeometry width="80" height="80" as="geometry"/>
                </mxCell>
                <mxCell id="351" value="" style="rounded=0;whiteSpace=wrap;html=1;fillColor=#008a00;fontColor=#ffffff;strokeColor=light-dark(#000000, #82cd82);container=0;" vertex="1" parent="348">
                    <mxGeometry width="10" height="80" as="geometry"/>
                </mxCell>
                <mxCell id="352" value="" style="rounded=0;whiteSpace=wrap;html=1;fillColor=#008a00;fontColor=#ffffff;strokeColor=light-dark(#000000, #82cd82);container=0;" vertex="1" parent="348">
                    <mxGeometry x="10" width="10" height="80" as="geometry"/>
                </mxCell>
                <mxCell id="353" value="" style="rounded=0;whiteSpace=wrap;html=1;fillColor=#008a00;fontColor=#ffffff;strokeColor=light-dark(#000000, #82cd82);container=0;" vertex="1" parent="348">
                    <mxGeometry x="20" width="10" height="80" as="geometry"/>
                </mxCell>
                <mxCell id="354" value="" style="rounded=0;whiteSpace=wrap;html=1;fillColor=#008a00;fontColor=#ffffff;strokeColor=light-dark(#000000, #82cd82);container=0;" vertex="1" parent="348">
                    <mxGeometry x="30" width="10" height="80" as="geometry"/>
                </mxCell>
                <mxCell id="355" value="" style="rounded=1;whiteSpace=wrap;html=1;fillColor=#008a00;fontColor=#ffffff;strokeColor=light-dark(#000000, #82cd82);container=0;" vertex="1" parent="348">
                    <mxGeometry x="40" width="10" height="80" as="geometry"/>
                </mxCell>
                <mxCell id="356" value="" style="rounded=1;whiteSpace=wrap;html=1;fillColor=#008a00;fontColor=#ffffff;strokeColor=light-dark(#000000, #82cd82);container=0;" vertex="1" parent="348">
                    <mxGeometry x="50" width="10" height="80" as="geometry"/>
                </mxCell>
                <mxCell id="357" value="" style="rounded=1;whiteSpace=wrap;html=1;fillColor=#008a00;fontColor=#ffffff;strokeColor=light-dark(#000000, #82cd82);container=0;" vertex="1" parent="348">
                    <mxGeometry x="60" width="10" height="80" as="geometry"/>
                </mxCell>
                <mxCell id="358" value="" style="rounded=1;whiteSpace=wrap;html=1;fillColor=#008a00;fontColor=#ffffff;strokeColor=light-dark(#000000, #82cd82);container=0;" vertex="1" parent="348">
                    <mxGeometry x="70" width="10" height="80" as="geometry"/>
                </mxCell>
                <mxCell id="359" value="" style="group" vertex="1" connectable="0" parent="1">
                    <mxGeometry x="-350" y="440" width="80" height="80" as="geometry"/>
                </mxCell>
                <mxCell id="360" value="" style="group;fillColor=#008a00;fontColor=#ffffff;strokeColor=light-dark(#000000, #82cd82);container=0;" vertex="1" connectable="0" parent="359">
                    <mxGeometry width="40" height="40" as="geometry"/>
                </mxCell>
                <mxCell id="361" value="" style="whiteSpace=wrap;html=1;aspect=fixed;strokeWidth=3;fillColor=#0050ef;fontColor=#ffffff;strokeColor=light-dark(#0026ff, #b2cbff);container=0;" vertex="1" parent="359">
                    <mxGeometry width="80" height="80" as="geometry"/>
                </mxCell>
                <mxCell id="362" value="" style="rounded=0;whiteSpace=wrap;html=1;fillColor=#008a00;fontColor=#ffffff;strokeColor=light-dark(#000000, #82cd82);container=0;" vertex="1" parent="359">
                    <mxGeometry width="10" height="80" as="geometry"/>
                </mxCell>
                <mxCell id="363" value="" style="rounded=0;whiteSpace=wrap;html=1;fillColor=#008a00;fontColor=#ffffff;strokeColor=light-dark(#000000, #82cd82);container=0;" vertex="1" parent="359">
                    <mxGeometry x="10" width="10" height="80" as="geometry"/>
                </mxCell>
                <mxCell id="364" value="" style="rounded=0;whiteSpace=wrap;html=1;fillColor=#008a00;fontColor=#ffffff;strokeColor=light-dark(#000000, #82cd82);container=0;" vertex="1" parent="359">
                    <mxGeometry x="20" width="10" height="80" as="geometry"/>
                </mxCell>
                <mxCell id="365" value="" style="rounded=0;whiteSpace=wrap;html=1;fillColor=#008a00;fontColor=#ffffff;strokeColor=light-dark(#000000, #82cd82);container=0;" vertex="1" parent="359">
                    <mxGeometry x="30" width="10" height="80" as="geometry"/>
                </mxCell>
                <mxCell id="366" value="" style="rounded=1;whiteSpace=wrap;html=1;fillColor=#008a00;fontColor=#ffffff;strokeColor=light-dark(#000000, #82cd82);container=0;" vertex="1" parent="359">
                    <mxGeometry x="40" width="10" height="80" as="geometry"/>
                </mxCell>
                <mxCell id="367" value="" style="rounded=1;whiteSpace=wrap;html=1;fillColor=#008a00;fontColor=#ffffff;strokeColor=light-dark(#000000, #82cd82);container=0;" vertex="1" parent="359">
                    <mxGeometry x="50" width="10" height="80" as="geometry"/>
                </mxCell>
                <mxCell id="368" value="" style="rounded=1;whiteSpace=wrap;html=1;fillColor=#008a00;fontColor=#ffffff;strokeColor=light-dark(#000000, #82cd82);container=0;" vertex="1" parent="359">
                    <mxGeometry x="60" width="10" height="80" as="geometry"/>
                </mxCell>
                <mxCell id="369" value="" style="rounded=1;whiteSpace=wrap;html=1;fillColor=#008a00;fontColor=#ffffff;strokeColor=light-dark(#000000, #82cd82);container=0;" vertex="1" parent="359">
                    <mxGeometry x="70" width="10" height="80" as="geometry"/>
                </mxCell>
                <mxCell id="370" value="" style="group" vertex="1" connectable="0" parent="1">
                    <mxGeometry x="-270" y="440" width="80" height="80" as="geometry"/>
                </mxCell>
                <mxCell id="371" value="" style="group;fillColor=#008a00;fontColor=#ffffff;strokeColor=light-dark(#000000, #82cd82);container=0;" vertex="1" connectable="0" parent="370">
                    <mxGeometry width="40" height="40" as="geometry"/>
                </mxCell>
                <mxCell id="372" value="" style="whiteSpace=wrap;html=1;aspect=fixed;strokeWidth=3;fillColor=#0050ef;fontColor=#ffffff;strokeColor=light-dark(#0026ff, #b2cbff);container=0;" vertex="1" parent="370">
                    <mxGeometry width="80" height="80" as="geometry"/>
                </mxCell>
                <mxCell id="373" value="" style="rounded=0;whiteSpace=wrap;html=1;fillColor=#008a00;fontColor=#ffffff;strokeColor=light-dark(#000000, #82cd82);container=0;" vertex="1" parent="370">
                    <mxGeometry width="10" height="80" as="geometry"/>
                </mxCell>
                <mxCell id="374" value="" style="rounded=0;whiteSpace=wrap;html=1;fillColor=#008a00;fontColor=#ffffff;strokeColor=light-dark(#000000, #82cd82);container=0;" vertex="1" parent="370">
                    <mxGeometry x="10" width="10" height="80" as="geometry"/>
                </mxCell>
                <mxCell id="375" value="" style="rounded=0;whiteSpace=wrap;html=1;fillColor=#008a00;fontColor=#ffffff;strokeColor=light-dark(#000000, #82cd82);container=0;" vertex="1" parent="370">
                    <mxGeometry x="20" width="10" height="80" as="geometry"/>
                </mxCell>
                <mxCell id="376" value="" style="rounded=0;whiteSpace=wrap;html=1;fillColor=#008a00;fontColor=#ffffff;strokeColor=light-dark(#000000, #82cd82);container=0;" vertex="1" parent="370">
                    <mxGeometry x="30" width="10" height="80" as="geometry"/>
                </mxCell>
                <mxCell id="377" value="" style="rounded=1;whiteSpace=wrap;html=1;fillColor=#008a00;fontColor=#ffffff;strokeColor=light-dark(#000000, #82cd82);container=0;" vertex="1" parent="370">
                    <mxGeometry x="40" width="10" height="80" as="geometry"/>
                </mxCell>
                <mxCell id="378" value="" style="rounded=1;whiteSpace=wrap;html=1;fillColor=#008a00;fontColor=#ffffff;strokeColor=light-dark(#000000, #82cd82);container=0;" vertex="1" parent="370">
                    <mxGeometry x="50" width="10" height="80" as="geometry"/>
                </mxCell>
                <mxCell id="379" value="" style="rounded=1;whiteSpace=wrap;html=1;fillColor=#008a00;fontColor=#ffffff;strokeColor=light-dark(#000000, #82cd82);container=0;" vertex="1" parent="370">
                    <mxGeometry x="60" width="10" height="80" as="geometry"/>
                </mxCell>
                <mxCell id="380" value="" style="rounded=1;whiteSpace=wrap;html=1;fillColor=#008a00;fontColor=#ffffff;strokeColor=light-dark(#000000, #82cd82);container=0;" vertex="1" parent="370">
                    <mxGeometry x="70" width="10" height="80" as="geometry"/>
                </mxCell>
                <mxCell id="381" value="" style="group" vertex="1" connectable="0" parent="1">
                    <mxGeometry x="-190" y="440" width="80" height="80" as="geometry"/>
                </mxCell>
                <mxCell id="382" value="" style="group;fillColor=#008a00;fontColor=#ffffff;strokeColor=light-dark(#000000, #82cd82);container=0;" vertex="1" connectable="0" parent="381">
                    <mxGeometry width="40" height="40" as="geometry"/>
                </mxCell>
                <mxCell id="383" value="" style="whiteSpace=wrap;html=1;aspect=fixed;strokeWidth=3;fillColor=#0050ef;fontColor=#ffffff;strokeColor=light-dark(#0026ff, #b2cbff);container=0;" vertex="1" parent="381">
                    <mxGeometry width="80" height="80" as="geometry"/>
                </mxCell>
                <mxCell id="384" value="" style="rounded=0;whiteSpace=wrap;html=1;fillColor=#008a00;fontColor=#ffffff;strokeColor=light-dark(#000000, #82cd82);container=0;" vertex="1" parent="381">
                    <mxGeometry width="10" height="80" as="geometry"/>
                </mxCell>
                <mxCell id="385" value="" style="rounded=0;whiteSpace=wrap;html=1;fillColor=#008a00;fontColor=#ffffff;strokeColor=light-dark(#000000, #82cd82);container=0;" vertex="1" parent="381">
                    <mxGeometry x="10" width="10" height="80" as="geometry"/>
                </mxCell>
                <mxCell id="386" value="" style="rounded=0;whiteSpace=wrap;html=1;fillColor=#008a00;fontColor=#ffffff;strokeColor=light-dark(#000000, #82cd82);container=0;" vertex="1" parent="381">
                    <mxGeometry x="20" width="10" height="80" as="geometry"/>
                </mxCell>
                <mxCell id="387" value="" style="rounded=0;whiteSpace=wrap;html=1;fillColor=#008a00;fontColor=#ffffff;strokeColor=light-dark(#000000, #82cd82);container=0;" vertex="1" parent="381">
                    <mxGeometry x="30" width="10" height="80" as="geometry"/>
                </mxCell>
                <mxCell id="388" value="" style="rounded=1;whiteSpace=wrap;html=1;fillColor=#008a00;fontColor=#ffffff;strokeColor=light-dark(#000000, #82cd82);container=0;" vertex="1" parent="381">
                    <mxGeometry x="40" width="10" height="80" as="geometry"/>
                </mxCell>
                <mxCell id="389" value="" style="rounded=1;whiteSpace=wrap;html=1;fillColor=#008a00;fontColor=#ffffff;strokeColor=light-dark(#000000, #82cd82);container=0;" vertex="1" parent="381">
                    <mxGeometry x="50" width="10" height="80" as="geometry"/>
                </mxCell>
                <mxCell id="390" value="" style="rounded=1;whiteSpace=wrap;html=1;fillColor=#008a00;fontColor=#ffffff;strokeColor=light-dark(#000000, #82cd82);container=0;" vertex="1" parent="381">
                    <mxGeometry x="60" width="10" height="80" as="geometry"/>
                </mxCell>
                <mxCell id="391" value="" style="rounded=1;whiteSpace=wrap;html=1;fillColor=#008a00;fontColor=#ffffff;strokeColor=light-dark(#000000, #82cd82);container=0;" vertex="1" parent="381">
                    <mxGeometry x="70" width="10" height="80" as="geometry"/>
                </mxCell>
                <mxCell id="392" value="" style="group" vertex="1" connectable="0" parent="1">
                    <mxGeometry x="-750" y="560" width="80" height="80" as="geometry"/>
                </mxCell>
                <mxCell id="393" value="" style="group;fillColor=#008a00;fontColor=#ffffff;strokeColor=light-dark(#000000, #82cd82);container=0;" vertex="1" connectable="0" parent="392">
                    <mxGeometry width="40" height="40" as="geometry"/>
                </mxCell>
                <mxCell id="394" value="" style="whiteSpace=wrap;html=1;aspect=fixed;strokeWidth=3;fillColor=#0050ef;fontColor=#ffffff;strokeColor=light-dark(#0026ff, #b2cbff);container=0;" vertex="1" parent="392">
                    <mxGeometry width="80" height="80" as="geometry"/>
                </mxCell>
                <mxCell id="395" value="" style="rounded=0;whiteSpace=wrap;html=1;fillColor=#008a00;fontColor=#ffffff;strokeColor=light-dark(#000000, #82cd82);container=0;" vertex="1" parent="392">
                    <mxGeometry width="10" height="80" as="geometry"/>
                </mxCell>
                <mxCell id="396" value="" style="rounded=0;whiteSpace=wrap;html=1;fillColor=#008a00;fontColor=#ffffff;strokeColor=light-dark(#000000, #82cd82);container=0;" vertex="1" parent="392">
                    <mxGeometry x="10" width="10" height="80" as="geometry"/>
                </mxCell>
                <mxCell id="397" value="" style="rounded=0;whiteSpace=wrap;html=1;fillColor=#008a00;fontColor=#ffffff;strokeColor=light-dark(#000000, #82cd82);container=0;" vertex="1" parent="392">
                    <mxGeometry x="20" width="10" height="80" as="geometry"/>
                </mxCell>
                <mxCell id="398" value="" style="rounded=0;whiteSpace=wrap;html=1;fillColor=#008a00;fontColor=#ffffff;strokeColor=light-dark(#000000, #82cd82);container=0;" vertex="1" parent="392">
                    <mxGeometry x="30" width="10" height="80" as="geometry"/>
                </mxCell>
                <mxCell id="399" value="" style="rounded=1;whiteSpace=wrap;html=1;fillColor=#008a00;fontColor=#ffffff;strokeColor=light-dark(#000000, #82cd82);container=0;" vertex="1" parent="392">
                    <mxGeometry x="40" width="10" height="80" as="geometry"/>
                </mxCell>
                <mxCell id="400" value="" style="rounded=1;whiteSpace=wrap;html=1;fillColor=#008a00;fontColor=#ffffff;strokeColor=light-dark(#000000, #82cd82);container=0;" vertex="1" parent="392">
                    <mxGeometry x="50" width="10" height="80" as="geometry"/>
                </mxCell>
                <mxCell id="401" value="" style="rounded=1;whiteSpace=wrap;html=1;fillColor=#008a00;fontColor=#ffffff;strokeColor=light-dark(#000000, #82cd82);container=0;" vertex="1" parent="392">
                    <mxGeometry x="60" width="10" height="80" as="geometry"/>
                </mxCell>
                <mxCell id="402" value="" style="rounded=1;whiteSpace=wrap;html=1;fillColor=#008a00;fontColor=#ffffff;strokeColor=light-dark(#000000, #82cd82);container=0;" vertex="1" parent="392">
                    <mxGeometry x="70" width="10" height="80" as="geometry"/>
                </mxCell>
                <mxCell id="403" value="" style="group" vertex="1" connectable="0" parent="1">
                    <mxGeometry x="-670" y="560" width="80" height="80" as="geometry"/>
                </mxCell>
                <mxCell id="404" value="" style="group;fillColor=#008a00;fontColor=#ffffff;strokeColor=light-dark(#000000, #82cd82);container=0;" vertex="1" connectable="0" parent="403">
                    <mxGeometry width="40" height="40" as="geometry"/>
                </mxCell>
                <mxCell id="405" value="" style="whiteSpace=wrap;html=1;aspect=fixed;strokeWidth=3;fillColor=#0050ef;fontColor=#ffffff;strokeColor=light-dark(#0026ff, #b2cbff);container=0;" vertex="1" parent="403">
                    <mxGeometry width="80" height="80" as="geometry"/>
                </mxCell>
                <mxCell id="406" value="" style="rounded=0;whiteSpace=wrap;html=1;fillColor=#008a00;fontColor=#ffffff;strokeColor=light-dark(#000000, #82cd82);container=0;" vertex="1" parent="403">
                    <mxGeometry width="10" height="80" as="geometry"/>
                </mxCell>
                <mxCell id="407" value="" style="rounded=0;whiteSpace=wrap;html=1;fillColor=#008a00;fontColor=#ffffff;strokeColor=light-dark(#000000, #82cd82);container=0;" vertex="1" parent="403">
                    <mxGeometry x="10" width="10" height="80" as="geometry"/>
                </mxCell>
                <mxCell id="408" value="" style="rounded=0;whiteSpace=wrap;html=1;fillColor=#008a00;fontColor=#ffffff;strokeColor=light-dark(#000000, #82cd82);container=0;" vertex="1" parent="403">
                    <mxGeometry x="20" width="10" height="80" as="geometry"/>
                </mxCell>
                <mxCell id="409" value="" style="rounded=0;whiteSpace=wrap;html=1;fillColor=#008a00;fontColor=#ffffff;strokeColor=light-dark(#000000, #82cd82);container=0;" vertex="1" parent="403">
                    <mxGeometry x="30" width="10" height="80" as="geometry"/>
                </mxCell>
                <mxCell id="410" value="" style="rounded=1;whiteSpace=wrap;html=1;fillColor=#008a00;fontColor=#ffffff;strokeColor=light-dark(#000000, #82cd82);container=0;" vertex="1" parent="403">
                    <mxGeometry x="40" width="10" height="80" as="geometry"/>
                </mxCell>
                <mxCell id="411" value="" style="rounded=1;whiteSpace=wrap;html=1;fillColor=#008a00;fontColor=#ffffff;strokeColor=light-dark(#000000, #82cd82);container=0;" vertex="1" parent="403">
                    <mxGeometry x="50" width="10" height="80" as="geometry"/>
                </mxCell>
                <mxCell id="412" value="" style="rounded=1;whiteSpace=wrap;html=1;fillColor=#008a00;fontColor=#ffffff;strokeColor=light-dark(#000000, #82cd82);container=0;" vertex="1" parent="403">
                    <mxGeometry x="60" width="10" height="80" as="geometry"/>
                </mxCell>
                <mxCell id="413" value="" style="rounded=1;whiteSpace=wrap;html=1;fillColor=#008a00;fontColor=#ffffff;strokeColor=light-dark(#000000, #82cd82);container=0;" vertex="1" parent="403">
                    <mxGeometry x="70" width="10" height="80" as="geometry"/>
                </mxCell>
                <mxCell id="414" value="" style="group" vertex="1" connectable="0" parent="1">
                    <mxGeometry x="-590" y="560" width="80" height="80" as="geometry"/>
                </mxCell>
                <mxCell id="415" value="" style="group;fillColor=#008a00;fontColor=#ffffff;strokeColor=light-dark(#000000, #82cd82);container=0;" vertex="1" connectable="0" parent="414">
                    <mxGeometry width="40" height="40" as="geometry"/>
                </mxCell>
                <mxCell id="416" value="" style="whiteSpace=wrap;html=1;aspect=fixed;strokeWidth=3;fillColor=#0050ef;fontColor=#ffffff;strokeColor=light-dark(#0026ff, #b2cbff);container=0;" vertex="1" parent="414">
                    <mxGeometry width="80" height="80" as="geometry"/>
                </mxCell>
                <mxCell id="417" value="" style="rounded=0;whiteSpace=wrap;html=1;fillColor=#008a00;fontColor=#ffffff;strokeColor=light-dark(#000000, #82cd82);container=0;" vertex="1" parent="414">
                    <mxGeometry width="10" height="80" as="geometry"/>
                </mxCell>
                <mxCell id="418" value="" style="rounded=0;whiteSpace=wrap;html=1;fillColor=#008a00;fontColor=#ffffff;strokeColor=light-dark(#000000, #82cd82);container=0;" vertex="1" parent="414">
                    <mxGeometry x="10" width="10" height="80" as="geometry"/>
                </mxCell>
                <mxCell id="419" value="" style="rounded=0;whiteSpace=wrap;html=1;fillColor=#008a00;fontColor=#ffffff;strokeColor=light-dark(#000000, #82cd82);container=0;" vertex="1" parent="414">
                    <mxGeometry x="20" width="10" height="80" as="geometry"/>
                </mxCell>
                <mxCell id="420" value="" style="rounded=0;whiteSpace=wrap;html=1;fillColor=#008a00;fontColor=#ffffff;strokeColor=light-dark(#000000, #82cd82);container=0;" vertex="1" parent="414">
                    <mxGeometry x="30" width="10" height="80" as="geometry"/>
                </mxCell>
                <mxCell id="421" value="" style="rounded=1;whiteSpace=wrap;html=1;fillColor=#008a00;fontColor=#ffffff;strokeColor=light-dark(#000000, #82cd82);container=0;" vertex="1" parent="414">
                    <mxGeometry x="40" width="10" height="80" as="geometry"/>
                </mxCell>
                <mxCell id="422" value="" style="rounded=1;whiteSpace=wrap;html=1;fillColor=#008a00;fontColor=#ffffff;strokeColor=light-dark(#000000, #82cd82);container=0;" vertex="1" parent="414">
                    <mxGeometry x="50" width="10" height="80" as="geometry"/>
                </mxCell>
                <mxCell id="423" value="" style="rounded=1;whiteSpace=wrap;html=1;fillColor=#008a00;fontColor=#ffffff;strokeColor=light-dark(#000000, #82cd82);container=0;" vertex="1" parent="414">
                    <mxGeometry x="60" width="10" height="80" as="geometry"/>
                </mxCell>
                <mxCell id="424" value="" style="rounded=1;whiteSpace=wrap;html=1;fillColor=#008a00;fontColor=#ffffff;strokeColor=light-dark(#000000, #82cd82);container=0;" vertex="1" parent="414">
                    <mxGeometry x="70" width="10" height="80" as="geometry"/>
                </mxCell>
                <mxCell id="425" value="" style="group" vertex="1" connectable="0" parent="1">
                    <mxGeometry x="-510" y="560" width="80" height="80" as="geometry"/>
                </mxCell>
                <mxCell id="426" value="" style="group;fillColor=#008a00;fontColor=#ffffff;strokeColor=light-dark(#000000, #82cd82);container=0;" vertex="1" connectable="0" parent="425">
                    <mxGeometry width="40" height="40" as="geometry"/>
                </mxCell>
                <mxCell id="427" value="" style="whiteSpace=wrap;html=1;aspect=fixed;strokeWidth=3;fillColor=#0050ef;fontColor=#ffffff;strokeColor=light-dark(#0026ff, #b2cbff);container=0;" vertex="1" parent="425">
                    <mxGeometry width="80" height="80" as="geometry"/>
                </mxCell>
                <mxCell id="428" value="" style="rounded=0;whiteSpace=wrap;html=1;fillColor=#008a00;fontColor=#ffffff;strokeColor=light-dark(#000000, #82cd82);container=0;" vertex="1" parent="425">
                    <mxGeometry width="10" height="80" as="geometry"/>
                </mxCell>
                <mxCell id="429" value="" style="rounded=0;whiteSpace=wrap;html=1;fillColor=#008a00;fontColor=#ffffff;strokeColor=light-dark(#000000, #82cd82);container=0;" vertex="1" parent="425">
                    <mxGeometry x="10" width="10" height="80" as="geometry"/>
                </mxCell>
                <mxCell id="430" value="" style="rounded=0;whiteSpace=wrap;html=1;fillColor=#008a00;fontColor=#ffffff;strokeColor=light-dark(#000000, #82cd82);container=0;" vertex="1" parent="425">
                    <mxGeometry x="20" width="10" height="80" as="geometry"/>
                </mxCell>
                <mxCell id="431" value="" style="rounded=0;whiteSpace=wrap;html=1;fillColor=#008a00;fontColor=#ffffff;strokeColor=light-dark(#000000, #82cd82);container=0;" vertex="1" parent="425">
                    <mxGeometry x="30" width="10" height="80" as="geometry"/>
                </mxCell>
                <mxCell id="432" value="" style="rounded=1;whiteSpace=wrap;html=1;fillColor=#008a00;fontColor=#ffffff;strokeColor=light-dark(#000000, #82cd82);container=0;" vertex="1" parent="425">
                    <mxGeometry x="40" width="10" height="80" as="geometry"/>
                </mxCell>
                <mxCell id="433" value="" style="rounded=1;whiteSpace=wrap;html=1;fillColor=#008a00;fontColor=#ffffff;strokeColor=light-dark(#000000, #82cd82);container=0;" vertex="1" parent="425">
                    <mxGeometry x="50" width="10" height="80" as="geometry"/>
                </mxCell>
                <mxCell id="434" value="" style="rounded=1;whiteSpace=wrap;html=1;fillColor=#008a00;fontColor=#ffffff;strokeColor=light-dark(#000000, #82cd82);container=0;" vertex="1" parent="425">
                    <mxGeometry x="60" width="10" height="80" as="geometry"/>
                </mxCell>
                <mxCell id="435" value="" style="rounded=1;whiteSpace=wrap;html=1;fillColor=#008a00;fontColor=#ffffff;strokeColor=light-dark(#000000, #82cd82);container=0;" vertex="1" parent="425">
                    <mxGeometry x="70" width="10" height="80" as="geometry"/>
                </mxCell>
                <mxCell id="436" value="" style="group" vertex="1" connectable="0" parent="1">
                    <mxGeometry x="-430" y="560" width="80" height="80" as="geometry"/>
                </mxCell>
                <mxCell id="437" value="" style="group;fillColor=#008a00;fontColor=#ffffff;strokeColor=light-dark(#000000, #82cd82);container=0;" vertex="1" connectable="0" parent="436">
                    <mxGeometry width="40" height="40" as="geometry"/>
                </mxCell>
                <mxCell id="438" value="" style="whiteSpace=wrap;html=1;aspect=fixed;strokeWidth=3;fillColor=#0050ef;fontColor=#ffffff;strokeColor=light-dark(#0026ff, #b2cbff);container=0;" vertex="1" parent="436">
                    <mxGeometry width="80" height="80" as="geometry"/>
                </mxCell>
                <mxCell id="439" value="" style="rounded=0;whiteSpace=wrap;html=1;fillColor=#008a00;fontColor=#ffffff;strokeColor=light-dark(#000000, #82cd82);container=0;" vertex="1" parent="436">
                    <mxGeometry width="10" height="80" as="geometry"/>
                </mxCell>
                <mxCell id="440" value="" style="rounded=0;whiteSpace=wrap;html=1;fillColor=#008a00;fontColor=#ffffff;strokeColor=light-dark(#000000, #82cd82);container=0;" vertex="1" parent="436">
                    <mxGeometry x="10" width="10" height="80" as="geometry"/>
                </mxCell>
                <mxCell id="441" value="" style="rounded=0;whiteSpace=wrap;html=1;fillColor=#008a00;fontColor=#ffffff;strokeColor=light-dark(#000000, #82cd82);container=0;" vertex="1" parent="436">
                    <mxGeometry x="20" width="10" height="80" as="geometry"/>
                </mxCell>
                <mxCell id="442" value="" style="rounded=0;whiteSpace=wrap;html=1;fillColor=#008a00;fontColor=#ffffff;strokeColor=light-dark(#000000, #82cd82);container=0;" vertex="1" parent="436">
                    <mxGeometry x="30" width="10" height="80" as="geometry"/>
                </mxCell>
                <mxCell id="443" value="" style="rounded=1;whiteSpace=wrap;html=1;fillColor=#008a00;fontColor=#ffffff;strokeColor=light-dark(#000000, #82cd82);container=0;" vertex="1" parent="436">
                    <mxGeometry x="40" width="10" height="80" as="geometry"/>
                </mxCell>
                <mxCell id="444" value="" style="rounded=1;whiteSpace=wrap;html=1;fillColor=#008a00;fontColor=#ffffff;strokeColor=light-dark(#000000, #82cd82);container=0;" vertex="1" parent="436">
                    <mxGeometry x="50" width="10" height="80" as="geometry"/>
                </mxCell>
                <mxCell id="445" value="" style="rounded=1;whiteSpace=wrap;html=1;fillColor=#008a00;fontColor=#ffffff;strokeColor=light-dark(#000000, #82cd82);container=0;" vertex="1" parent="436">
                    <mxGeometry x="60" width="10" height="80" as="geometry"/>
                </mxCell>
                <mxCell id="446" value="" style="rounded=1;whiteSpace=wrap;html=1;fillColor=#008a00;fontColor=#ffffff;strokeColor=light-dark(#000000, #82cd82);container=0;" vertex="1" parent="436">
                    <mxGeometry x="70" width="10" height="80" as="geometry"/>
                </mxCell>
                <mxCell id="447" value="" style="group" vertex="1" connectable="0" parent="1">
                    <mxGeometry x="-350" y="560" width="80" height="80" as="geometry"/>
                </mxCell>
                <mxCell id="448" value="" style="group;fillColor=#008a00;fontColor=#ffffff;strokeColor=light-dark(#000000, #82cd82);container=0;" vertex="1" connectable="0" parent="447">
                    <mxGeometry width="40" height="40" as="geometry"/>
                </mxCell>
                <mxCell id="449" value="" style="whiteSpace=wrap;html=1;aspect=fixed;strokeWidth=3;fillColor=#0050ef;fontColor=#ffffff;strokeColor=light-dark(#0026ff, #b2cbff);container=0;" vertex="1" parent="447">
                    <mxGeometry width="80" height="80" as="geometry"/>
                </mxCell>
                <mxCell id="450" value="" style="rounded=0;whiteSpace=wrap;html=1;fillColor=#008a00;fontColor=#ffffff;strokeColor=light-dark(#000000, #82cd82);container=0;" vertex="1" parent="447">
                    <mxGeometry width="10" height="80" as="geometry"/>
                </mxCell>
                <mxCell id="451" value="" style="rounded=0;whiteSpace=wrap;html=1;fillColor=#008a00;fontColor=#ffffff;strokeColor=light-dark(#000000, #82cd82);container=0;" vertex="1" parent="447">
                    <mxGeometry x="10" width="10" height="80" as="geometry"/>
                </mxCell>
                <mxCell id="452" value="" style="rounded=0;whiteSpace=wrap;html=1;fillColor=#008a00;fontColor=#ffffff;strokeColor=light-dark(#000000, #82cd82);container=0;" vertex="1" parent="447">
                    <mxGeometry x="20" width="10" height="80" as="geometry"/>
                </mxCell>
                <mxCell id="453" value="" style="rounded=0;whiteSpace=wrap;html=1;fillColor=#008a00;fontColor=#ffffff;strokeColor=light-dark(#000000, #82cd82);container=0;" vertex="1" parent="447">
                    <mxGeometry x="30" width="10" height="80" as="geometry"/>
                </mxCell>
                <mxCell id="454" value="" style="rounded=1;whiteSpace=wrap;html=1;fillColor=#008a00;fontColor=#ffffff;strokeColor=light-dark(#000000, #82cd82);container=0;" vertex="1" parent="447">
                    <mxGeometry x="40" width="10" height="80" as="geometry"/>
                </mxCell>
                <mxCell id="455" value="" style="rounded=1;whiteSpace=wrap;html=1;fillColor=#008a00;fontColor=#ffffff;strokeColor=light-dark(#000000, #82cd82);container=0;" vertex="1" parent="447">
                    <mxGeometry x="50" width="10" height="80" as="geometry"/>
                </mxCell>
                <mxCell id="456" value="" style="rounded=1;whiteSpace=wrap;html=1;fillColor=#008a00;fontColor=#ffffff;strokeColor=light-dark(#000000, #82cd82);container=0;" vertex="1" parent="447">
                    <mxGeometry x="60" width="10" height="80" as="geometry"/>
                </mxCell>
                <mxCell id="457" value="" style="rounded=1;whiteSpace=wrap;html=1;fillColor=#008a00;fontColor=#ffffff;strokeColor=light-dark(#000000, #82cd82);container=0;" vertex="1" parent="447">
                    <mxGeometry x="70" width="10" height="80" as="geometry"/>
                </mxCell>
                <mxCell id="458" value="" style="group" vertex="1" connectable="0" parent="1">
                    <mxGeometry x="-270" y="560" width="80" height="80" as="geometry"/>
                </mxCell>
                <mxCell id="459" value="" style="group;fillColor=#008a00;fontColor=#ffffff;strokeColor=light-dark(#000000, #82cd82);container=0;" vertex="1" connectable="0" parent="458">
                    <mxGeometry width="40" height="40" as="geometry"/>
                </mxCell>
                <mxCell id="460" value="" style="whiteSpace=wrap;html=1;aspect=fixed;strokeWidth=3;fillColor=#0050ef;fontColor=#ffffff;strokeColor=light-dark(#0026ff, #b2cbff);container=0;" vertex="1" parent="458">
                    <mxGeometry width="80" height="80" as="geometry"/>
                </mxCell>
                <mxCell id="461" value="" style="rounded=0;whiteSpace=wrap;html=1;fillColor=#008a00;fontColor=#ffffff;strokeColor=light-dark(#000000, #82cd82);container=0;" vertex="1" parent="458">
                    <mxGeometry width="10" height="80" as="geometry"/>
                </mxCell>
                <mxCell id="462" value="" style="rounded=0;whiteSpace=wrap;html=1;fillColor=#008a00;fontColor=#ffffff;strokeColor=light-dark(#000000, #82cd82);container=0;" vertex="1" parent="458">
                    <mxGeometry x="10" width="10" height="80" as="geometry"/>
                </mxCell>
                <mxCell id="463" value="" style="rounded=0;whiteSpace=wrap;html=1;fillColor=#008a00;fontColor=#ffffff;strokeColor=light-dark(#000000, #82cd82);container=0;" vertex="1" parent="458">
                    <mxGeometry x="20" width="10" height="80" as="geometry"/>
                </mxCell>
                <mxCell id="464" value="" style="rounded=0;whiteSpace=wrap;html=1;fillColor=#008a00;fontColor=#ffffff;strokeColor=light-dark(#000000, #82cd82);container=0;" vertex="1" parent="458">
                    <mxGeometry x="30" width="10" height="80" as="geometry"/>
                </mxCell>
                <mxCell id="465" value="" style="rounded=1;whiteSpace=wrap;html=1;fillColor=#008a00;fontColor=#ffffff;strokeColor=light-dark(#000000, #82cd82);container=0;" vertex="1" parent="458">
                    <mxGeometry x="40" width="10" height="80" as="geometry"/>
                </mxCell>
                <mxCell id="466" value="" style="rounded=1;whiteSpace=wrap;html=1;fillColor=#008a00;fontColor=#ffffff;strokeColor=light-dark(#000000, #82cd82);container=0;" vertex="1" parent="458">
                    <mxGeometry x="50" width="10" height="80" as="geometry"/>
                </mxCell>
                <mxCell id="467" value="" style="rounded=1;whiteSpace=wrap;html=1;fillColor=#008a00;fontColor=#ffffff;strokeColor=light-dark(#000000, #82cd82);container=0;" vertex="1" parent="458">
                    <mxGeometry x="60" width="10" height="80" as="geometry"/>
                </mxCell>
                <mxCell id="468" value="" style="rounded=1;whiteSpace=wrap;html=1;fillColor=#008a00;fontColor=#ffffff;strokeColor=light-dark(#000000, #82cd82);container=0;" vertex="1" parent="458">
                    <mxGeometry x="70" width="10" height="80" as="geometry"/>
                </mxCell>
                <mxCell id="469" value="" style="group" vertex="1" connectable="0" parent="1">
                    <mxGeometry x="-190" y="560" width="80" height="80" as="geometry"/>
                </mxCell>
                <mxCell id="470" value="" style="group;fillColor=#008a00;fontColor=#ffffff;strokeColor=light-dark(#000000, #82cd82);container=0;" vertex="1" connectable="0" parent="469">
                    <mxGeometry width="40" height="40" as="geometry"/>
                </mxCell>
                <mxCell id="471" value="" style="whiteSpace=wrap;html=1;aspect=fixed;strokeWidth=3;fillColor=#0050ef;fontColor=#ffffff;strokeColor=light-dark(#0026ff, #b2cbff);container=0;" vertex="1" parent="469">
                    <mxGeometry width="80" height="80" as="geometry"/>
                </mxCell>
                <mxCell id="472" value="" style="rounded=0;whiteSpace=wrap;html=1;fillColor=#008a00;fontColor=#ffffff;strokeColor=light-dark(#000000, #82cd82);container=0;" vertex="1" parent="469">
                    <mxGeometry width="10" height="80" as="geometry"/>
                </mxCell>
                <mxCell id="473" value="" style="rounded=0;whiteSpace=wrap;html=1;fillColor=#008a00;fontColor=#ffffff;strokeColor=light-dark(#000000, #82cd82);container=0;" vertex="1" parent="469">
                    <mxGeometry x="10" width="10" height="80" as="geometry"/>
                </mxCell>
                <mxCell id="474" value="" style="rounded=0;whiteSpace=wrap;html=1;fillColor=#008a00;fontColor=#ffffff;strokeColor=light-dark(#000000, #82cd82);container=0;" vertex="1" parent="469">
                    <mxGeometry x="20" width="10" height="80" as="geometry"/>
                </mxCell>
                <mxCell id="475" value="" style="rounded=0;whiteSpace=wrap;html=1;fillColor=#008a00;fontColor=#ffffff;strokeColor=light-dark(#000000, #82cd82);container=0;" vertex="1" parent="469">
                    <mxGeometry x="30" width="10" height="80" as="geometry"/>
                </mxCell>
                <mxCell id="476" value="" style="rounded=1;whiteSpace=wrap;html=1;fillColor=#008a00;fontColor=#ffffff;strokeColor=light-dark(#000000, #82cd82);container=0;" vertex="1" parent="469">
                    <mxGeometry x="40" width="10" height="80" as="geometry"/>
                </mxCell>
                <mxCell id="477" value="" style="rounded=1;whiteSpace=wrap;html=1;fillColor=#008a00;fontColor=#ffffff;strokeColor=light-dark(#000000, #82cd82);container=0;" vertex="1" parent="469">
                    <mxGeometry x="50" width="10" height="80" as="geometry"/>
                </mxCell>
                <mxCell id="478" value="" style="rounded=1;whiteSpace=wrap;html=1;fillColor=#008a00;fontColor=#ffffff;strokeColor=light-dark(#000000, #82cd82);container=0;" vertex="1" parent="469">
                    <mxGeometry x="60" width="10" height="80" as="geometry"/>
                </mxCell>
                <mxCell id="479" value="" style="rounded=1;whiteSpace=wrap;html=1;fillColor=#008a00;fontColor=#ffffff;strokeColor=light-dark(#000000, #82cd82);container=0;" vertex="1" parent="469">
                    <mxGeometry x="70" width="10" height="80" as="geometry"/>
                </mxCell>
                <mxCell id="480" value="" style="group" vertex="1" connectable="0" parent="1">
                    <mxGeometry x="-750" y="680" width="80" height="80" as="geometry"/>
                </mxCell>
                <mxCell id="481" value="" style="group;fillColor=#008a00;fontColor=#ffffff;strokeColor=light-dark(#000000, #82cd82);container=0;" vertex="1" connectable="0" parent="480">
                    <mxGeometry width="40" height="40" as="geometry"/>
                </mxCell>
                <mxCell id="482" value="" style="whiteSpace=wrap;html=1;aspect=fixed;strokeWidth=3;fillColor=#0050ef;fontColor=#ffffff;strokeColor=light-dark(#0026ff, #b2cbff);container=0;" vertex="1" parent="480">
                    <mxGeometry width="80" height="80" as="geometry"/>
                </mxCell>
                <mxCell id="483" value="" style="rounded=0;whiteSpace=wrap;html=1;fillColor=#008a00;fontColor=#ffffff;strokeColor=light-dark(#000000, #82cd82);container=0;" vertex="1" parent="480">
                    <mxGeometry width="10" height="80" as="geometry"/>
                </mxCell>
                <mxCell id="484" value="" style="rounded=0;whiteSpace=wrap;html=1;fillColor=#008a00;fontColor=#ffffff;strokeColor=light-dark(#000000, #82cd82);container=0;" vertex="1" parent="480">
                    <mxGeometry x="10" width="10" height="80" as="geometry"/>
                </mxCell>
                <mxCell id="485" value="" style="rounded=0;whiteSpace=wrap;html=1;fillColor=#008a00;fontColor=#ffffff;strokeColor=light-dark(#000000, #82cd82);container=0;" vertex="1" parent="480">
                    <mxGeometry x="20" width="10" height="80" as="geometry"/>
                </mxCell>
                <mxCell id="486" value="" style="rounded=0;whiteSpace=wrap;html=1;fillColor=#008a00;fontColor=#ffffff;strokeColor=light-dark(#000000, #82cd82);container=0;" vertex="1" parent="480">
                    <mxGeometry x="30" width="10" height="80" as="geometry"/>
                </mxCell>
                <mxCell id="487" value="" style="rounded=1;whiteSpace=wrap;html=1;fillColor=#008a00;fontColor=#ffffff;strokeColor=light-dark(#000000, #82cd82);container=0;" vertex="1" parent="480">
                    <mxGeometry x="40" width="10" height="80" as="geometry"/>
                </mxCell>
                <mxCell id="488" value="" style="rounded=1;whiteSpace=wrap;html=1;fillColor=#008a00;fontColor=#ffffff;strokeColor=light-dark(#000000, #82cd82);container=0;" vertex="1" parent="480">
                    <mxGeometry x="50" width="10" height="80" as="geometry"/>
                </mxCell>
                <mxCell id="489" value="" style="rounded=1;whiteSpace=wrap;html=1;fillColor=#008a00;fontColor=#ffffff;strokeColor=light-dark(#000000, #82cd82);container=0;" vertex="1" parent="480">
                    <mxGeometry x="60" width="10" height="80" as="geometry"/>
                </mxCell>
                <mxCell id="490" value="" style="rounded=1;whiteSpace=wrap;html=1;fillColor=#008a00;fontColor=#ffffff;strokeColor=light-dark(#000000, #82cd82);container=0;" vertex="1" parent="480">
                    <mxGeometry x="70" width="10" height="80" as="geometry"/>
                </mxCell>
                <mxCell id="491" value="" style="group" vertex="1" connectable="0" parent="1">
                    <mxGeometry x="-670" y="680" width="80" height="80" as="geometry"/>
                </mxCell>
                <mxCell id="492" value="" style="group;fillColor=#008a00;fontColor=#ffffff;strokeColor=light-dark(#000000, #82cd82);container=0;" vertex="1" connectable="0" parent="491">
                    <mxGeometry width="40" height="40" as="geometry"/>
                </mxCell>
                <mxCell id="493" value="" style="whiteSpace=wrap;html=1;aspect=fixed;strokeWidth=3;fillColor=#0050ef;fontColor=#ffffff;strokeColor=light-dark(#0026ff, #b2cbff);container=0;" vertex="1" parent="491">
                    <mxGeometry width="80" height="80" as="geometry"/>
                </mxCell>
                <mxCell id="494" value="" style="rounded=0;whiteSpace=wrap;html=1;fillColor=#008a00;fontColor=#ffffff;strokeColor=light-dark(#000000, #82cd82);container=0;" vertex="1" parent="491">
                    <mxGeometry width="10" height="80" as="geometry"/>
                </mxCell>
                <mxCell id="495" value="" style="rounded=0;whiteSpace=wrap;html=1;fillColor=#008a00;fontColor=#ffffff;strokeColor=light-dark(#000000, #82cd82);container=0;" vertex="1" parent="491">
                    <mxGeometry x="10" width="10" height="80" as="geometry"/>
                </mxCell>
                <mxCell id="496" value="" style="rounded=0;whiteSpace=wrap;html=1;fillColor=#008a00;fontColor=#ffffff;strokeColor=light-dark(#000000, #82cd82);container=0;" vertex="1" parent="491">
                    <mxGeometry x="20" width="10" height="80" as="geometry"/>
                </mxCell>
                <mxCell id="497" value="" style="rounded=0;whiteSpace=wrap;html=1;fillColor=#008a00;fontColor=#ffffff;strokeColor=light-dark(#000000, #82cd82);container=0;" vertex="1" parent="491">
                    <mxGeometry x="30" width="10" height="80" as="geometry"/>
                </mxCell>
                <mxCell id="498" value="" style="rounded=1;whiteSpace=wrap;html=1;fillColor=#008a00;fontColor=#ffffff;strokeColor=light-dark(#000000, #82cd82);container=0;" vertex="1" parent="491">
                    <mxGeometry x="40" width="10" height="80" as="geometry"/>
                </mxCell>
                <mxCell id="499" value="" style="rounded=1;whiteSpace=wrap;html=1;fillColor=#008a00;fontColor=#ffffff;strokeColor=light-dark(#000000, #82cd82);container=0;" vertex="1" parent="491">
                    <mxGeometry x="50" width="10" height="80" as="geometry"/>
                </mxCell>
                <mxCell id="500" value="" style="rounded=1;whiteSpace=wrap;html=1;fillColor=#008a00;fontColor=#ffffff;strokeColor=light-dark(#000000, #82cd82);container=0;" vertex="1" parent="491">
                    <mxGeometry x="60" width="10" height="80" as="geometry"/>
                </mxCell>
                <mxCell id="501" value="" style="rounded=1;whiteSpace=wrap;html=1;fillColor=#008a00;fontColor=#ffffff;strokeColor=light-dark(#000000, #82cd82);container=0;" vertex="1" parent="491">
                    <mxGeometry x="70" width="10" height="80" as="geometry"/>
                </mxCell>
                <mxCell id="502" value="" style="group" vertex="1" connectable="0" parent="1">
                    <mxGeometry x="-590" y="680" width="80" height="80" as="geometry"/>
                </mxCell>
                <mxCell id="503" value="" style="group;fillColor=#008a00;fontColor=#ffffff;strokeColor=light-dark(#000000, #82cd82);container=0;" vertex="1" connectable="0" parent="502">
                    <mxGeometry width="40" height="40" as="geometry"/>
                </mxCell>
                <mxCell id="504" value="" style="whiteSpace=wrap;html=1;aspect=fixed;strokeWidth=3;fillColor=#0050ef;fontColor=#ffffff;strokeColor=light-dark(#0026ff, #b2cbff);container=0;" vertex="1" parent="502">
                    <mxGeometry width="80" height="80" as="geometry"/>
                </mxCell>
                <mxCell id="505" value="" style="rounded=0;whiteSpace=wrap;html=1;fillColor=#008a00;fontColor=#ffffff;strokeColor=light-dark(#000000, #82cd82);container=0;" vertex="1" parent="502">
                    <mxGeometry width="10" height="80" as="geometry"/>
                </mxCell>
                <mxCell id="506" value="" style="rounded=0;whiteSpace=wrap;html=1;fillColor=#008a00;fontColor=#ffffff;strokeColor=light-dark(#000000, #82cd82);container=0;" vertex="1" parent="502">
                    <mxGeometry x="10" width="10" height="80" as="geometry"/>
                </mxCell>
                <mxCell id="507" value="" style="rounded=0;whiteSpace=wrap;html=1;fillColor=#008a00;fontColor=#ffffff;strokeColor=light-dark(#000000, #82cd82);container=0;" vertex="1" parent="502">
                    <mxGeometry x="20" width="10" height="80" as="geometry"/>
                </mxCell>
                <mxCell id="508" value="" style="rounded=0;whiteSpace=wrap;html=1;fillColor=#008a00;fontColor=#ffffff;strokeColor=light-dark(#000000, #82cd82);container=0;" vertex="1" parent="502">
                    <mxGeometry x="30" width="10" height="80" as="geometry"/>
                </mxCell>
                <mxCell id="509" value="" style="rounded=1;whiteSpace=wrap;html=1;fillColor=#008a00;fontColor=#ffffff;strokeColor=light-dark(#000000, #82cd82);container=0;" vertex="1" parent="502">
                    <mxGeometry x="40" width="10" height="80" as="geometry"/>
                </mxCell>
                <mxCell id="510" value="" style="rounded=1;whiteSpace=wrap;html=1;fillColor=#008a00;fontColor=#ffffff;strokeColor=light-dark(#000000, #82cd82);container=0;" vertex="1" parent="502">
                    <mxGeometry x="50" width="10" height="80" as="geometry"/>
                </mxCell>
                <mxCell id="511" value="" style="rounded=1;whiteSpace=wrap;html=1;fillColor=#008a00;fontColor=#ffffff;strokeColor=light-dark(#000000, #82cd82);container=0;" vertex="1" parent="502">
                    <mxGeometry x="60" width="10" height="80" as="geometry"/>
                </mxCell>
                <mxCell id="512" value="" style="rounded=1;whiteSpace=wrap;html=1;fillColor=#008a00;fontColor=#ffffff;strokeColor=light-dark(#000000, #82cd82);container=0;" vertex="1" parent="502">
                    <mxGeometry x="70" width="10" height="80" as="geometry"/>
                </mxCell>
                <mxCell id="513" value="" style="group" vertex="1" connectable="0" parent="1">
                    <mxGeometry x="-510" y="680" width="80" height="80" as="geometry"/>
                </mxCell>
                <mxCell id="514" value="" style="group;fillColor=#008a00;fontColor=#ffffff;strokeColor=light-dark(#000000, #82cd82);container=0;" vertex="1" connectable="0" parent="513">
                    <mxGeometry width="40" height="40" as="geometry"/>
                </mxCell>
                <mxCell id="515" value="" style="whiteSpace=wrap;html=1;aspect=fixed;strokeWidth=3;fillColor=#0050ef;fontColor=#ffffff;strokeColor=light-dark(#0026ff, #b2cbff);container=0;" vertex="1" parent="513">
                    <mxGeometry width="80" height="80" as="geometry"/>
                </mxCell>
                <mxCell id="516" value="" style="rounded=0;whiteSpace=wrap;html=1;fillColor=#008a00;fontColor=#ffffff;strokeColor=light-dark(#000000, #82cd82);container=0;" vertex="1" parent="513">
                    <mxGeometry width="10" height="80" as="geometry"/>
                </mxCell>
                <mxCell id="517" value="" style="rounded=0;whiteSpace=wrap;html=1;fillColor=#008a00;fontColor=#ffffff;strokeColor=light-dark(#000000, #82cd82);container=0;" vertex="1" parent="513">
                    <mxGeometry x="10" width="10" height="80" as="geometry"/>
                </mxCell>
                <mxCell id="518" value="" style="rounded=0;whiteSpace=wrap;html=1;fillColor=#008a00;fontColor=#ffffff;strokeColor=light-dark(#000000, #82cd82);container=0;" vertex="1" parent="513">
                    <mxGeometry x="20" width="10" height="80" as="geometry"/>
                </mxCell>
                <mxCell id="519" value="" style="rounded=0;whiteSpace=wrap;html=1;fillColor=#008a00;fontColor=#ffffff;strokeColor=light-dark(#000000, #82cd82);container=0;" vertex="1" parent="513">
                    <mxGeometry x="30" width="10" height="80" as="geometry"/>
                </mxCell>
                <mxCell id="520" value="" style="rounded=1;whiteSpace=wrap;html=1;fillColor=#008a00;fontColor=#ffffff;strokeColor=light-dark(#000000, #82cd82);container=0;" vertex="1" parent="513">
                    <mxGeometry x="40" width="10" height="80" as="geometry"/>
                </mxCell>
                <mxCell id="521" value="" style="rounded=1;whiteSpace=wrap;html=1;fillColor=#008a00;fontColor=#ffffff;strokeColor=light-dark(#000000, #82cd82);container=0;" vertex="1" parent="513">
                    <mxGeometry x="50" width="10" height="80" as="geometry"/>
                </mxCell>
                <mxCell id="522" value="" style="rounded=1;whiteSpace=wrap;html=1;fillColor=#008a00;fontColor=#ffffff;strokeColor=light-dark(#000000, #82cd82);container=0;" vertex="1" parent="513">
                    <mxGeometry x="60" width="10" height="80" as="geometry"/>
                </mxCell>
                <mxCell id="523" value="" style="rounded=1;whiteSpace=wrap;html=1;fillColor=#008a00;fontColor=#ffffff;strokeColor=light-dark(#000000, #82cd82);container=0;" vertex="1" parent="513">
                    <mxGeometry x="70" width="10" height="80" as="geometry"/>
                </mxCell>
                <mxCell id="524" value="" style="group" vertex="1" connectable="0" parent="1">
                    <mxGeometry x="-430" y="680" width="80" height="80" as="geometry"/>
                </mxCell>
                <mxCell id="525" value="" style="group;fillColor=#008a00;fontColor=#ffffff;strokeColor=light-dark(#000000, #82cd82);container=0;" vertex="1" connectable="0" parent="524">
                    <mxGeometry width="40" height="40" as="geometry"/>
                </mxCell>
                <mxCell id="526" value="" style="whiteSpace=wrap;html=1;aspect=fixed;strokeWidth=3;fillColor=#0050ef;fontColor=#ffffff;strokeColor=light-dark(#0026ff, #b2cbff);container=0;" vertex="1" parent="524">
                    <mxGeometry width="80" height="80" as="geometry"/>
                </mxCell>
                <mxCell id="527" value="" style="rounded=0;whiteSpace=wrap;html=1;fillColor=#008a00;fontColor=#ffffff;strokeColor=light-dark(#000000, #82cd82);container=0;" vertex="1" parent="524">
                    <mxGeometry width="10" height="80" as="geometry"/>
                </mxCell>
                <mxCell id="528" value="" style="rounded=0;whiteSpace=wrap;html=1;fillColor=#008a00;fontColor=#ffffff;strokeColor=light-dark(#000000, #82cd82);container=0;" vertex="1" parent="524">
                    <mxGeometry x="10" width="10" height="80" as="geometry"/>
                </mxCell>
                <mxCell id="529" value="" style="rounded=0;whiteSpace=wrap;html=1;fillColor=#008a00;fontColor=#ffffff;strokeColor=light-dark(#000000, #82cd82);container=0;" vertex="1" parent="524">
                    <mxGeometry x="20" width="10" height="80" as="geometry"/>
                </mxCell>
                <mxCell id="530" value="" style="rounded=0;whiteSpace=wrap;html=1;fillColor=#008a00;fontColor=#ffffff;strokeColor=light-dark(#000000, #82cd82);container=0;" vertex="1" parent="524">
                    <mxGeometry x="30" width="10" height="80" as="geometry"/>
                </mxCell>
                <mxCell id="531" value="" style="rounded=1;whiteSpace=wrap;html=1;fillColor=#008a00;fontColor=#ffffff;strokeColor=light-dark(#000000, #82cd82);container=0;" vertex="1" parent="524">
                    <mxGeometry x="40" width="10" height="80" as="geometry"/>
                </mxCell>
                <mxCell id="532" value="" style="rounded=1;whiteSpace=wrap;html=1;fillColor=#008a00;fontColor=#ffffff;strokeColor=light-dark(#000000, #82cd82);container=0;" vertex="1" parent="524">
                    <mxGeometry x="50" width="10" height="80" as="geometry"/>
                </mxCell>
                <mxCell id="533" value="" style="rounded=1;whiteSpace=wrap;html=1;fillColor=#008a00;fontColor=#ffffff;strokeColor=light-dark(#000000, #82cd82);container=0;" vertex="1" parent="524">
                    <mxGeometry x="60" width="10" height="80" as="geometry"/>
                </mxCell>
                <mxCell id="534" value="" style="rounded=1;whiteSpace=wrap;html=1;fillColor=#008a00;fontColor=#ffffff;strokeColor=light-dark(#000000, #82cd82);container=0;" vertex="1" parent="524">
                    <mxGeometry x="70" width="10" height="80" as="geometry"/>
                </mxCell>
                <mxCell id="535" value="" style="group" vertex="1" connectable="0" parent="1">
                    <mxGeometry x="-350" y="680" width="80" height="80" as="geometry"/>
                </mxCell>
                <mxCell id="536" value="" style="group;fillColor=#008a00;fontColor=#ffffff;strokeColor=light-dark(#000000, #82cd82);container=0;" vertex="1" connectable="0" parent="535">
                    <mxGeometry width="40" height="40" as="geometry"/>
                </mxCell>
                <mxCell id="537" value="" style="whiteSpace=wrap;html=1;aspect=fixed;strokeWidth=3;fillColor=#0050ef;fontColor=#ffffff;strokeColor=light-dark(#0026ff, #b2cbff);container=0;" vertex="1" parent="535">
                    <mxGeometry width="80" height="80" as="geometry"/>
                </mxCell>
                <mxCell id="538" value="" style="rounded=0;whiteSpace=wrap;html=1;fillColor=#008a00;fontColor=#ffffff;strokeColor=light-dark(#000000, #82cd82);container=0;" vertex="1" parent="535">
                    <mxGeometry width="10" height="80" as="geometry"/>
                </mxCell>
                <mxCell id="539" value="" style="rounded=0;whiteSpace=wrap;html=1;fillColor=#008a00;fontColor=#ffffff;strokeColor=light-dark(#000000, #82cd82);container=0;" vertex="1" parent="535">
                    <mxGeometry x="10" width="10" height="80" as="geometry"/>
                </mxCell>
                <mxCell id="540" value="" style="rounded=0;whiteSpace=wrap;html=1;fillColor=#008a00;fontColor=#ffffff;strokeColor=light-dark(#000000, #82cd82);container=0;" vertex="1" parent="535">
                    <mxGeometry x="20" width="10" height="80" as="geometry"/>
                </mxCell>
                <mxCell id="541" value="" style="rounded=0;whiteSpace=wrap;html=1;fillColor=#008a00;fontColor=#ffffff;strokeColor=light-dark(#000000, #82cd82);container=0;" vertex="1" parent="535">
                    <mxGeometry x="30" width="10" height="80" as="geometry"/>
                </mxCell>
                <mxCell id="542" value="" style="rounded=1;whiteSpace=wrap;html=1;fillColor=#008a00;fontColor=#ffffff;strokeColor=light-dark(#000000, #82cd82);container=0;" vertex="1" parent="535">
                    <mxGeometry x="40" width="10" height="80" as="geometry"/>
                </mxCell>
                <mxCell id="543" value="" style="rounded=1;whiteSpace=wrap;html=1;fillColor=#008a00;fontColor=#ffffff;strokeColor=light-dark(#000000, #82cd82);container=0;" vertex="1" parent="535">
                    <mxGeometry x="50" width="10" height="80" as="geometry"/>
                </mxCell>
                <mxCell id="544" value="" style="rounded=1;whiteSpace=wrap;html=1;fillColor=#008a00;fontColor=#ffffff;strokeColor=light-dark(#000000, #82cd82);container=0;" vertex="1" parent="535">
                    <mxGeometry x="60" width="10" height="80" as="geometry"/>
                </mxCell>
                <mxCell id="545" value="" style="rounded=1;whiteSpace=wrap;html=1;fillColor=#008a00;fontColor=#ffffff;strokeColor=light-dark(#000000, #82cd82);container=0;" vertex="1" parent="535">
                    <mxGeometry x="70" width="10" height="80" as="geometry"/>
                </mxCell>
                <mxCell id="546" value="" style="group" vertex="1" connectable="0" parent="1">
                    <mxGeometry x="-270" y="680" width="80" height="80" as="geometry"/>
                </mxCell>
                <mxCell id="547" value="" style="group;fillColor=#008a00;fontColor=#ffffff;strokeColor=light-dark(#000000, #82cd82);container=0;" vertex="1" connectable="0" parent="546">
                    <mxGeometry width="40" height="40" as="geometry"/>
                </mxCell>
                <mxCell id="548" value="" style="whiteSpace=wrap;html=1;aspect=fixed;strokeWidth=3;fillColor=#0050ef;fontColor=#ffffff;strokeColor=light-dark(#0026ff, #b2cbff);container=0;" vertex="1" parent="546">
                    <mxGeometry width="80" height="80" as="geometry"/>
                </mxCell>
                <mxCell id="549" value="" style="rounded=0;whiteSpace=wrap;html=1;fillColor=#008a00;fontColor=#ffffff;strokeColor=light-dark(#000000, #82cd82);container=0;" vertex="1" parent="546">
                    <mxGeometry width="10" height="80" as="geometry"/>
                </mxCell>
                <mxCell id="550" value="" style="rounded=0;whiteSpace=wrap;html=1;fillColor=#008a00;fontColor=#ffffff;strokeColor=light-dark(#000000, #82cd82);container=0;" vertex="1" parent="546">
                    <mxGeometry x="10" width="10" height="80" as="geometry"/>
                </mxCell>
                <mxCell id="551" value="" style="rounded=0;whiteSpace=wrap;html=1;fillColor=#008a00;fontColor=#ffffff;strokeColor=light-dark(#000000, #82cd82);container=0;" vertex="1" parent="546">
                    <mxGeometry x="20" width="10" height="80" as="geometry"/>
                </mxCell>
                <mxCell id="552" value="" style="rounded=0;whiteSpace=wrap;html=1;fillColor=#008a00;fontColor=#ffffff;strokeColor=light-dark(#000000, #82cd82);container=0;" vertex="1" parent="546">
                    <mxGeometry x="30" width="10" height="80" as="geometry"/>
                </mxCell>
                <mxCell id="553" value="" style="rounded=1;whiteSpace=wrap;html=1;fillColor=#008a00;fontColor=#ffffff;strokeColor=light-dark(#000000, #82cd82);container=0;" vertex="1" parent="546">
                    <mxGeometry x="40" width="10" height="80" as="geometry"/>
                </mxCell>
                <mxCell id="554" value="" style="rounded=1;whiteSpace=wrap;html=1;fillColor=#008a00;fontColor=#ffffff;strokeColor=light-dark(#000000, #82cd82);container=0;" vertex="1" parent="546">
                    <mxGeometry x="50" width="10" height="80" as="geometry"/>
                </mxCell>
                <mxCell id="555" value="" style="rounded=1;whiteSpace=wrap;html=1;fillColor=#008a00;fontColor=#ffffff;strokeColor=light-dark(#000000, #82cd82);container=0;" vertex="1" parent="546">
                    <mxGeometry x="60" width="10" height="80" as="geometry"/>
                </mxCell>
                <mxCell id="556" value="" style="rounded=1;whiteSpace=wrap;html=1;fillColor=#008a00;fontColor=#ffffff;strokeColor=light-dark(#000000, #82cd82);container=0;" vertex="1" parent="546">
                    <mxGeometry x="70" width="10" height="80" as="geometry"/>
                </mxCell>
                <mxCell id="557" value="" style="group" vertex="1" connectable="0" parent="1">
                    <mxGeometry x="-190" y="680" width="80" height="80" as="geometry"/>
                </mxCell>
                <mxCell id="558" value="" style="group;fillColor=#008a00;fontColor=#ffffff;strokeColor=light-dark(#000000, #82cd82);container=0;" vertex="1" connectable="0" parent="557">
                    <mxGeometry width="40" height="40" as="geometry"/>
                </mxCell>
                <mxCell id="559" value="" style="whiteSpace=wrap;html=1;aspect=fixed;strokeWidth=3;fillColor=#0050ef;fontColor=#ffffff;strokeColor=light-dark(#0026ff, #b2cbff);container=0;" vertex="1" parent="557">
                    <mxGeometry width="80" height="80" as="geometry"/>
                </mxCell>
                <mxCell id="560" value="" style="rounded=0;whiteSpace=wrap;html=1;fillColor=#008a00;fontColor=#ffffff;strokeColor=light-dark(#000000, #82cd82);container=0;" vertex="1" parent="557">
                    <mxGeometry width="10" height="80" as="geometry"/>
                </mxCell>
                <mxCell id="561" value="" style="rounded=0;whiteSpace=wrap;html=1;fillColor=#008a00;fontColor=#ffffff;strokeColor=light-dark(#000000, #82cd82);container=0;" vertex="1" parent="557">
                    <mxGeometry x="10" width="10" height="80" as="geometry"/>
                </mxCell>
                <mxCell id="562" value="" style="rounded=0;whiteSpace=wrap;html=1;fillColor=#008a00;fontColor=#ffffff;strokeColor=light-dark(#000000, #82cd82);container=0;" vertex="1" parent="557">
                    <mxGeometry x="20" width="10" height="80" as="geometry"/>
                </mxCell>
                <mxCell id="563" value="" style="rounded=0;whiteSpace=wrap;html=1;fillColor=#008a00;fontColor=#ffffff;strokeColor=light-dark(#000000, #82cd82);container=0;" vertex="1" parent="557">
                    <mxGeometry x="30" width="10" height="80" as="geometry"/>
                </mxCell>
                <mxCell id="564" value="" style="rounded=1;whiteSpace=wrap;html=1;fillColor=#008a00;fontColor=#ffffff;strokeColor=light-dark(#000000, #82cd82);container=0;" vertex="1" parent="557">
                    <mxGeometry x="40" width="10" height="80" as="geometry"/>
                </mxCell>
                <mxCell id="565" value="" style="rounded=1;whiteSpace=wrap;html=1;fillColor=#008a00;fontColor=#ffffff;strokeColor=light-dark(#000000, #82cd82);container=0;" vertex="1" parent="557">
                    <mxGeometry x="50" width="10" height="80" as="geometry"/>
                </mxCell>
                <mxCell id="566" value="" style="rounded=1;whiteSpace=wrap;html=1;fillColor=#008a00;fontColor=#ffffff;strokeColor=light-dark(#000000, #82cd82);container=0;" vertex="1" parent="557">
                    <mxGeometry x="60" width="10" height="80" as="geometry"/>
                </mxCell>
                <mxCell id="567" value="" style="rounded=1;whiteSpace=wrap;html=1;fillColor=#008a00;fontColor=#ffffff;strokeColor=light-dark(#000000, #82cd82);container=0;" vertex="1" parent="557">
                    <mxGeometry x="70" width="10" height="80" as="geometry"/>
                </mxCell>
                <mxCell id="999" value="" style="shape=curlyBracket;whiteSpace=wrap;html=1;rounded=1;labelPosition=left;verticalLabelPosition=middle;align=right;verticalAlign=middle;rotation=90;strokeWidth=2;strokeColor=#690000;" vertex="1" parent="1">
                    <mxGeometry x="-600" y="390" width="20" height="320" as="geometry"/>
                </mxCell>
                <mxCell id="1033" value="" style="group" vertex="1" connectable="0" parent="1">
                    <mxGeometry x="-750" y="800" width="80" height="80" as="geometry"/>
                </mxCell>
                <mxCell id="1034" value="" style="group;fillColor=#008a00;fontColor=#ffffff;strokeColor=light-dark(#000000, #82cd82);container=0;" vertex="1" connectable="0" parent="1033">
                    <mxGeometry width="40" height="40" as="geometry"/>
                </mxCell>
                <mxCell id="1035" value="" style="whiteSpace=wrap;html=1;aspect=fixed;strokeWidth=3;fillColor=#0050ef;fontColor=#ffffff;strokeColor=light-dark(#0026ff, #b2cbff);container=0;" vertex="1" parent="1033">
                    <mxGeometry width="80" height="80" as="geometry"/>
                </mxCell>
                <mxCell id="1036" value="" style="rounded=0;whiteSpace=wrap;html=1;fillColor=#008a00;fontColor=#ffffff;strokeColor=light-dark(#000000, #82cd82);container=0;" vertex="1" parent="1033">
                    <mxGeometry width="10" height="80" as="geometry"/>
                </mxCell>
                <mxCell id="1037" value="" style="rounded=0;whiteSpace=wrap;html=1;fillColor=#008a00;fontColor=#ffffff;strokeColor=light-dark(#000000, #82cd82);container=0;" vertex="1" parent="1033">
                    <mxGeometry x="10" width="10" height="80" as="geometry"/>
                </mxCell>
                <mxCell id="1038" value="" style="rounded=0;whiteSpace=wrap;html=1;fillColor=#008a00;fontColor=#ffffff;strokeColor=light-dark(#000000, #82cd82);container=0;" vertex="1" parent="1033">
                    <mxGeometry x="20" width="10" height="80" as="geometry"/>
                </mxCell>
                <mxCell id="1039" value="" style="rounded=0;whiteSpace=wrap;html=1;fillColor=#008a00;fontColor=#ffffff;strokeColor=light-dark(#000000, #82cd82);container=0;" vertex="1" parent="1033">
                    <mxGeometry x="30" width="10" height="80" as="geometry"/>
                </mxCell>
                <mxCell id="1040" value="" style="rounded=1;whiteSpace=wrap;html=1;fillColor=#008a00;fontColor=#ffffff;strokeColor=light-dark(#000000, #82cd82);container=0;" vertex="1" parent="1033">
                    <mxGeometry x="40" width="10" height="80" as="geometry"/>
                </mxCell>
                <mxCell id="1041" value="" style="rounded=1;whiteSpace=wrap;html=1;fillColor=#008a00;fontColor=#ffffff;strokeColor=light-dark(#000000, #82cd82);container=0;" vertex="1" parent="1033">
                    <mxGeometry x="50" width="10" height="80" as="geometry"/>
                </mxCell>
                <mxCell id="1042" value="" style="rounded=1;whiteSpace=wrap;html=1;fillColor=#008a00;fontColor=#ffffff;strokeColor=light-dark(#000000, #82cd82);container=0;" vertex="1" parent="1033">
                    <mxGeometry x="60" width="10" height="80" as="geometry"/>
                </mxCell>
                <mxCell id="1043" value="" style="rounded=1;whiteSpace=wrap;html=1;fillColor=#008a00;fontColor=#ffffff;strokeColor=light-dark(#000000, #82cd82);container=0;" vertex="1" parent="1033">
                    <mxGeometry x="70" width="10" height="80" as="geometry"/>
                </mxCell>
                <mxCell id="1044" value="" style="group" vertex="1" connectable="0" parent="1">
                    <mxGeometry x="-670" y="800" width="80" height="80" as="geometry"/>
                </mxCell>
                <mxCell id="1045" value="" style="group;fillColor=#008a00;fontColor=#ffffff;strokeColor=light-dark(#000000, #82cd82);container=0;" vertex="1" connectable="0" parent="1044">
                    <mxGeometry width="40" height="40" as="geometry"/>
                </mxCell>
                <mxCell id="1046" value="" style="whiteSpace=wrap;html=1;aspect=fixed;strokeWidth=3;fillColor=#0050ef;fontColor=#ffffff;strokeColor=light-dark(#0026ff, #b2cbff);container=0;" vertex="1" parent="1044">
                    <mxGeometry width="80" height="80" as="geometry"/>
                </mxCell>
                <mxCell id="1047" value="" style="rounded=0;whiteSpace=wrap;html=1;fillColor=#008a00;fontColor=#ffffff;strokeColor=light-dark(#000000, #82cd82);container=0;" vertex="1" parent="1044">
                    <mxGeometry width="10" height="80" as="geometry"/>
                </mxCell>
                <mxCell id="1048" value="" style="rounded=0;whiteSpace=wrap;html=1;fillColor=#008a00;fontColor=#ffffff;strokeColor=light-dark(#000000, #82cd82);container=0;" vertex="1" parent="1044">
                    <mxGeometry x="10" width="10" height="80" as="geometry"/>
                </mxCell>
                <mxCell id="1049" value="" style="rounded=0;whiteSpace=wrap;html=1;fillColor=#008a00;fontColor=#ffffff;strokeColor=light-dark(#000000, #82cd82);container=0;" vertex="1" parent="1044">
                    <mxGeometry x="20" width="10" height="80" as="geometry"/>
                </mxCell>
                <mxCell id="1050" value="" style="rounded=0;whiteSpace=wrap;html=1;fillColor=#008a00;fontColor=#ffffff;strokeColor=light-dark(#000000, #82cd82);container=0;" vertex="1" parent="1044">
                    <mxGeometry x="30" width="10" height="80" as="geometry"/>
                </mxCell>
                <mxCell id="1051" value="" style="rounded=1;whiteSpace=wrap;html=1;fillColor=#008a00;fontColor=#ffffff;strokeColor=light-dark(#000000, #82cd82);container=0;" vertex="1" parent="1044">
                    <mxGeometry x="40" width="10" height="80" as="geometry"/>
                </mxCell>
                <mxCell id="1052" value="" style="rounded=1;whiteSpace=wrap;html=1;fillColor=#008a00;fontColor=#ffffff;strokeColor=light-dark(#000000, #82cd82);container=0;" vertex="1" parent="1044">
                    <mxGeometry x="50" width="10" height="80" as="geometry"/>
                </mxCell>
                <mxCell id="1053" value="" style="rounded=1;whiteSpace=wrap;html=1;fillColor=#008a00;fontColor=#ffffff;strokeColor=light-dark(#000000, #82cd82);container=0;" vertex="1" parent="1044">
                    <mxGeometry x="60" width="10" height="80" as="geometry"/>
                </mxCell>
                <mxCell id="1054" value="" style="rounded=1;whiteSpace=wrap;html=1;fillColor=#008a00;fontColor=#ffffff;strokeColor=light-dark(#000000, #82cd82);container=0;" vertex="1" parent="1044">
                    <mxGeometry x="70" width="10" height="80" as="geometry"/>
                </mxCell>
                <mxCell id="1055" value="" style="group" vertex="1" connectable="0" parent="1">
                    <mxGeometry x="-590" y="800" width="80" height="80" as="geometry"/>
                </mxCell>
                <mxCell id="1056" value="" style="group;fillColor=#008a00;fontColor=#ffffff;strokeColor=light-dark(#000000, #82cd82);container=0;" vertex="1" connectable="0" parent="1055">
                    <mxGeometry width="40" height="40" as="geometry"/>
                </mxCell>
                <mxCell id="1057" value="" style="whiteSpace=wrap;html=1;aspect=fixed;strokeWidth=3;fillColor=#0050ef;fontColor=#ffffff;strokeColor=light-dark(#0026ff, #b2cbff);container=0;" vertex="1" parent="1055">
                    <mxGeometry width="80" height="80" as="geometry"/>
                </mxCell>
                <mxCell id="1058" value="" style="rounded=0;whiteSpace=wrap;html=1;fillColor=#008a00;fontColor=#ffffff;strokeColor=light-dark(#000000, #82cd82);container=0;" vertex="1" parent="1055">
                    <mxGeometry width="10" height="80" as="geometry"/>
                </mxCell>
                <mxCell id="1059" value="" style="rounded=0;whiteSpace=wrap;html=1;fillColor=#008a00;fontColor=#ffffff;strokeColor=light-dark(#000000, #82cd82);container=0;" vertex="1" parent="1055">
                    <mxGeometry x="10" width="10" height="80" as="geometry"/>
                </mxCell>
                <mxCell id="1060" value="" style="rounded=0;whiteSpace=wrap;html=1;fillColor=#008a00;fontColor=#ffffff;strokeColor=light-dark(#000000, #82cd82);container=0;" vertex="1" parent="1055">
                    <mxGeometry x="20" width="10" height="80" as="geometry"/>
                </mxCell>
                <mxCell id="1061" value="" style="rounded=0;whiteSpace=wrap;html=1;fillColor=#008a00;fontColor=#ffffff;strokeColor=light-dark(#000000, #82cd82);container=0;" vertex="1" parent="1055">
                    <mxGeometry x="30" width="10" height="80" as="geometry"/>
                </mxCell>
                <mxCell id="1062" value="" style="rounded=1;whiteSpace=wrap;html=1;fillColor=#008a00;fontColor=#ffffff;strokeColor=light-dark(#000000, #82cd82);container=0;" vertex="1" parent="1055">
                    <mxGeometry x="40" width="10" height="80" as="geometry"/>
                </mxCell>
                <mxCell id="1063" value="" style="rounded=1;whiteSpace=wrap;html=1;fillColor=#008a00;fontColor=#ffffff;strokeColor=light-dark(#000000, #82cd82);container=0;" vertex="1" parent="1055">
                    <mxGeometry x="50" width="10" height="80" as="geometry"/>
                </mxCell>
                <mxCell id="1064" value="" style="rounded=1;whiteSpace=wrap;html=1;fillColor=#008a00;fontColor=#ffffff;strokeColor=light-dark(#000000, #82cd82);container=0;" vertex="1" parent="1055">
                    <mxGeometry x="60" width="10" height="80" as="geometry"/>
                </mxCell>
                <mxCell id="1065" value="" style="rounded=1;whiteSpace=wrap;html=1;fillColor=#008a00;fontColor=#ffffff;strokeColor=light-dark(#000000, #82cd82);container=0;" vertex="1" parent="1055">
                    <mxGeometry x="70" width="10" height="80" as="geometry"/>
                </mxCell>
                <mxCell id="1066" value="" style="group" vertex="1" connectable="0" parent="1">
                    <mxGeometry x="-510" y="800" width="80" height="80" as="geometry"/>
                </mxCell>
                <mxCell id="1067" value="" style="group;fillColor=#008a00;fontColor=#ffffff;strokeColor=light-dark(#000000, #82cd82);container=0;" vertex="1" connectable="0" parent="1066">
                    <mxGeometry width="40" height="40" as="geometry"/>
                </mxCell>
                <mxCell id="1068" value="" style="whiteSpace=wrap;html=1;aspect=fixed;strokeWidth=3;fillColor=#0050ef;fontColor=#ffffff;strokeColor=light-dark(#0026ff, #b2cbff);container=0;" vertex="1" parent="1066">
                    <mxGeometry width="80" height="80" as="geometry"/>
                </mxCell>
                <mxCell id="1069" value="" style="rounded=0;whiteSpace=wrap;html=1;fillColor=#008a00;fontColor=#ffffff;strokeColor=light-dark(#000000, #82cd82);container=0;" vertex="1" parent="1066">
                    <mxGeometry width="10" height="80" as="geometry"/>
                </mxCell>
                <mxCell id="1070" value="" style="rounded=0;whiteSpace=wrap;html=1;fillColor=#008a00;fontColor=#ffffff;strokeColor=light-dark(#000000, #82cd82);container=0;" vertex="1" parent="1066">
                    <mxGeometry x="10" width="10" height="80" as="geometry"/>
                </mxCell>
                <mxCell id="1071" value="" style="rounded=0;whiteSpace=wrap;html=1;fillColor=#008a00;fontColor=#ffffff;strokeColor=light-dark(#000000, #82cd82);container=0;" vertex="1" parent="1066">
                    <mxGeometry x="20" width="10" height="80" as="geometry"/>
                </mxCell>
                <mxCell id="1072" value="" style="rounded=0;whiteSpace=wrap;html=1;fillColor=#008a00;fontColor=#ffffff;strokeColor=light-dark(#000000, #82cd82);container=0;" vertex="1" parent="1066">
                    <mxGeometry x="30" width="10" height="80" as="geometry"/>
                </mxCell>
                <mxCell id="1073" value="" style="rounded=1;whiteSpace=wrap;html=1;fillColor=#008a00;fontColor=#ffffff;strokeColor=light-dark(#000000, #82cd82);container=0;" vertex="1" parent="1066">
                    <mxGeometry x="40" width="10" height="80" as="geometry"/>
                </mxCell>
                <mxCell id="1074" value="" style="rounded=1;whiteSpace=wrap;html=1;fillColor=#008a00;fontColor=#ffffff;strokeColor=light-dark(#000000, #82cd82);container=0;" vertex="1" parent="1066">
                    <mxGeometry x="50" width="10" height="80" as="geometry"/>
                </mxCell>
                <mxCell id="1075" value="" style="rounded=1;whiteSpace=wrap;html=1;fillColor=#008a00;fontColor=#ffffff;strokeColor=light-dark(#000000, #82cd82);container=0;" vertex="1" parent="1066">
                    <mxGeometry x="60" width="10" height="80" as="geometry"/>
                </mxCell>
                <mxCell id="1076" value="" style="rounded=1;whiteSpace=wrap;html=1;fillColor=#008a00;fontColor=#ffffff;strokeColor=light-dark(#000000, #82cd82);container=0;" vertex="1" parent="1066">
                    <mxGeometry x="70" width="10" height="80" as="geometry"/>
                </mxCell>
                <mxCell id="1077" value="" style="group" vertex="1" connectable="0" parent="1">
                    <mxGeometry x="-430" y="800" width="80" height="80" as="geometry"/>
                </mxCell>
                <mxCell id="1078" value="" style="group;fillColor=#008a00;fontColor=#ffffff;strokeColor=light-dark(#000000, #82cd82);container=0;" vertex="1" connectable="0" parent="1077">
                    <mxGeometry width="40" height="40" as="geometry"/>
                </mxCell>
                <mxCell id="1079" value="" style="whiteSpace=wrap;html=1;aspect=fixed;strokeWidth=3;fillColor=#0050ef;fontColor=#ffffff;strokeColor=light-dark(#0026ff, #b2cbff);container=0;" vertex="1" parent="1077">
                    <mxGeometry width="80" height="80" as="geometry"/>
                </mxCell>
                <mxCell id="1080" value="" style="rounded=0;whiteSpace=wrap;html=1;fillColor=#008a00;fontColor=#ffffff;strokeColor=light-dark(#000000, #82cd82);container=0;" vertex="1" parent="1077">
                    <mxGeometry width="10" height="80" as="geometry"/>
                </mxCell>
                <mxCell id="1081" value="" style="rounded=0;whiteSpace=wrap;html=1;fillColor=#008a00;fontColor=#ffffff;strokeColor=light-dark(#000000, #82cd82);container=0;" vertex="1" parent="1077">
                    <mxGeometry x="10" width="10" height="80" as="geometry"/>
                </mxCell>
                <mxCell id="1082" value="" style="rounded=0;whiteSpace=wrap;html=1;fillColor=#008a00;fontColor=#ffffff;strokeColor=light-dark(#000000, #82cd82);container=0;" vertex="1" parent="1077">
                    <mxGeometry x="20" width="10" height="80" as="geometry"/>
                </mxCell>
                <mxCell id="1083" value="" style="rounded=0;whiteSpace=wrap;html=1;fillColor=#008a00;fontColor=#ffffff;strokeColor=light-dark(#000000, #82cd82);container=0;" vertex="1" parent="1077">
                    <mxGeometry x="30" width="10" height="80" as="geometry"/>
                </mxCell>
                <mxCell id="1084" value="" style="rounded=1;whiteSpace=wrap;html=1;fillColor=#008a00;fontColor=#ffffff;strokeColor=light-dark(#000000, #82cd82);container=0;" vertex="1" parent="1077">
                    <mxGeometry x="40" width="10" height="80" as="geometry"/>
                </mxCell>
                <mxCell id="1085" value="" style="rounded=1;whiteSpace=wrap;html=1;fillColor=#008a00;fontColor=#ffffff;strokeColor=light-dark(#000000, #82cd82);container=0;" vertex="1" parent="1077">
                    <mxGeometry x="50" width="10" height="80" as="geometry"/>
                </mxCell>
                <mxCell id="1086" value="" style="rounded=1;whiteSpace=wrap;html=1;fillColor=#008a00;fontColor=#ffffff;strokeColor=light-dark(#000000, #82cd82);container=0;" vertex="1" parent="1077">
                    <mxGeometry x="60" width="10" height="80" as="geometry"/>
                </mxCell>
                <mxCell id="1087" value="" style="rounded=1;whiteSpace=wrap;html=1;fillColor=#008a00;fontColor=#ffffff;strokeColor=light-dark(#000000, #82cd82);container=0;" vertex="1" parent="1077">
                    <mxGeometry x="70" width="10" height="80" as="geometry"/>
                </mxCell>
                <mxCell id="1088" value="" style="group" vertex="1" connectable="0" parent="1">
                    <mxGeometry x="-350" y="800" width="80" height="80" as="geometry"/>
                </mxCell>
                <mxCell id="1089" value="" style="group;fillColor=#008a00;fontColor=#ffffff;strokeColor=light-dark(#000000, #82cd82);container=0;" vertex="1" connectable="0" parent="1088">
                    <mxGeometry width="40" height="40" as="geometry"/>
                </mxCell>
                <mxCell id="1090" value="" style="whiteSpace=wrap;html=1;aspect=fixed;strokeWidth=3;fillColor=#0050ef;fontColor=#ffffff;strokeColor=light-dark(#0026ff, #b2cbff);container=0;" vertex="1" parent="1088">
                    <mxGeometry width="80" height="80" as="geometry"/>
                </mxCell>
                <mxCell id="1091" value="" style="rounded=0;whiteSpace=wrap;html=1;fillColor=#008a00;fontColor=#ffffff;strokeColor=light-dark(#000000, #82cd82);container=0;" vertex="1" parent="1088">
                    <mxGeometry width="10" height="80" as="geometry"/>
                </mxCell>
                <mxCell id="1092" value="" style="rounded=0;whiteSpace=wrap;html=1;fillColor=#008a00;fontColor=#ffffff;strokeColor=light-dark(#000000, #82cd82);container=0;" vertex="1" parent="1088">
                    <mxGeometry x="10" width="10" height="80" as="geometry"/>
                </mxCell>
                <mxCell id="1093" value="" style="rounded=0;whiteSpace=wrap;html=1;fillColor=#008a00;fontColor=#ffffff;strokeColor=light-dark(#000000, #82cd82);container=0;" vertex="1" parent="1088">
                    <mxGeometry x="20" width="10" height="80" as="geometry"/>
                </mxCell>
                <mxCell id="1094" value="" style="rounded=0;whiteSpace=wrap;html=1;fillColor=#008a00;fontColor=#ffffff;strokeColor=light-dark(#000000, #82cd82);container=0;" vertex="1" parent="1088">
                    <mxGeometry x="30" width="10" height="80" as="geometry"/>
                </mxCell>
                <mxCell id="1095" value="" style="rounded=1;whiteSpace=wrap;html=1;fillColor=#008a00;fontColor=#ffffff;strokeColor=light-dark(#000000, #82cd82);container=0;" vertex="1" parent="1088">
                    <mxGeometry x="40" width="10" height="80" as="geometry"/>
                </mxCell>
                <mxCell id="1096" value="" style="rounded=1;whiteSpace=wrap;html=1;fillColor=#008a00;fontColor=#ffffff;strokeColor=light-dark(#000000, #82cd82);container=0;" vertex="1" parent="1088">
                    <mxGeometry x="50" width="10" height="80" as="geometry"/>
                </mxCell>
                <mxCell id="1097" value="" style="rounded=1;whiteSpace=wrap;html=1;fillColor=#008a00;fontColor=#ffffff;strokeColor=light-dark(#000000, #82cd82);container=0;" vertex="1" parent="1088">
                    <mxGeometry x="60" width="10" height="80" as="geometry"/>
                </mxCell>
                <mxCell id="1098" value="" style="rounded=1;whiteSpace=wrap;html=1;fillColor=#008a00;fontColor=#ffffff;strokeColor=light-dark(#000000, #82cd82);container=0;" vertex="1" parent="1088">
                    <mxGeometry x="70" width="10" height="80" as="geometry"/>
                </mxCell>
                <mxCell id="1099" value="" style="group" vertex="1" connectable="0" parent="1">
                    <mxGeometry x="-270" y="800" width="80" height="80" as="geometry"/>
                </mxCell>
                <mxCell id="1100" value="" style="group;fillColor=#008a00;fontColor=#ffffff;strokeColor=light-dark(#000000, #82cd82);container=0;" vertex="1" connectable="0" parent="1099">
                    <mxGeometry width="40" height="40" as="geometry"/>
                </mxCell>
                <mxCell id="1101" value="" style="whiteSpace=wrap;html=1;aspect=fixed;strokeWidth=3;fillColor=#0050ef;fontColor=#ffffff;strokeColor=light-dark(#0026ff, #b2cbff);container=0;" vertex="1" parent="1099">
                    <mxGeometry width="80" height="80" as="geometry"/>
                </mxCell>
                <mxCell id="1102" value="" style="rounded=0;whiteSpace=wrap;html=1;fillColor=#008a00;fontColor=#ffffff;strokeColor=light-dark(#000000, #82cd82);container=0;" vertex="1" parent="1099">
                    <mxGeometry width="10" height="80" as="geometry"/>
                </mxCell>
                <mxCell id="1103" value="" style="rounded=0;whiteSpace=wrap;html=1;fillColor=#008a00;fontColor=#ffffff;strokeColor=light-dark(#000000, #82cd82);container=0;" vertex="1" parent="1099">
                    <mxGeometry x="10" width="10" height="80" as="geometry"/>
                </mxCell>
                <mxCell id="1104" value="" style="rounded=0;whiteSpace=wrap;html=1;fillColor=#008a00;fontColor=#ffffff;strokeColor=light-dark(#000000, #82cd82);container=0;" vertex="1" parent="1099">
                    <mxGeometry x="20" width="10" height="80" as="geometry"/>
                </mxCell>
                <mxCell id="1105" value="" style="rounded=0;whiteSpace=wrap;html=1;fillColor=#008a00;fontColor=#ffffff;strokeColor=light-dark(#000000, #82cd82);container=0;" vertex="1" parent="1099">
                    <mxGeometry x="30" width="10" height="80" as="geometry"/>
                </mxCell>
                <mxCell id="1106" value="" style="rounded=1;whiteSpace=wrap;html=1;fillColor=#008a00;fontColor=#ffffff;strokeColor=light-dark(#000000, #82cd82);container=0;" vertex="1" parent="1099">
                    <mxGeometry x="40" width="10" height="80" as="geometry"/>
                </mxCell>
                <mxCell id="1107" value="" style="rounded=1;whiteSpace=wrap;html=1;fillColor=#008a00;fontColor=#ffffff;strokeColor=light-dark(#000000, #82cd82);container=0;" vertex="1" parent="1099">
                    <mxGeometry x="50" width="10" height="80" as="geometry"/>
                </mxCell>
                <mxCell id="1108" value="" style="rounded=1;whiteSpace=wrap;html=1;fillColor=#008a00;fontColor=#ffffff;strokeColor=light-dark(#000000, #82cd82);container=0;" vertex="1" parent="1099">
                    <mxGeometry x="60" width="10" height="80" as="geometry"/>
                </mxCell>
                <mxCell id="1109" value="" style="rounded=1;whiteSpace=wrap;html=1;fillColor=#008a00;fontColor=#ffffff;strokeColor=light-dark(#000000, #82cd82);container=0;" vertex="1" parent="1099">
                    <mxGeometry x="70" width="10" height="80" as="geometry"/>
                </mxCell>
                <mxCell id="1122" value="" style="shape=curlyBracket;whiteSpace=wrap;html=1;rounded=1;labelPosition=left;verticalLabelPosition=middle;align=right;verticalAlign=middle;rotation=90;strokeWidth=2;strokeColor=#690000;" vertex="1" parent="1">
                    <mxGeometry x="-480" y="390" width="20" height="80" as="geometry"/>
                </mxCell>
                <mxCell id="1123" value="" style="shape=curlyBracket;whiteSpace=wrap;html=1;rounded=1;labelPosition=left;verticalLabelPosition=middle;align=right;verticalAlign=middle;rotation=90;strokeWidth=2;strokeColor=#690000;" vertex="1" parent="1">
                    <mxGeometry x="-280" y="390" width="20" height="320" as="geometry"/>
                </mxCell>
                <mxCell id="1124" value="" style="shape=curlyBracket;whiteSpace=wrap;html=1;rounded=1;labelPosition=left;verticalLabelPosition=middle;align=right;verticalAlign=middle;rotation=90;strokeWidth=2;strokeColor=#690000;" vertex="1" parent="1">
                    <mxGeometry x="-600" y="510" width="20" height="320" as="geometry"/>
                </mxCell>
                <mxCell id="1125" value="" style="shape=curlyBracket;whiteSpace=wrap;html=1;rounded=1;labelPosition=left;verticalLabelPosition=middle;align=right;verticalAlign=middle;rotation=90;strokeWidth=2;strokeColor=#690000;" vertex="1" parent="1">
                    <mxGeometry x="-280" y="510" width="20" height="320" as="geometry"/>
                </mxCell>
                <mxCell id="1126" value="" style="shape=curlyBracket;whiteSpace=wrap;html=1;rounded=1;labelPosition=left;verticalLabelPosition=middle;align=right;verticalAlign=middle;rotation=90;strokeWidth=2;strokeColor=#690000;" vertex="1" parent="1">
                    <mxGeometry x="-600" y="630" width="20" height="320" as="geometry"/>
                </mxCell>
                <mxCell id="1127" value="" style="shape=curlyBracket;whiteSpace=wrap;html=1;rounded=1;labelPosition=left;verticalLabelPosition=middle;align=right;verticalAlign=middle;rotation=90;strokeWidth=2;strokeColor=#690000;" vertex="1" parent="1">
                    <mxGeometry x="-280" y="630" width="20" height="320" as="geometry"/>
                </mxCell>
                <mxCell id="1141" value="" style="group" vertex="1" connectable="0" parent="1">
                    <mxGeometry x="-190" y="800" width="80" height="80" as="geometry"/>
                </mxCell>
                <mxCell id="1142" value="" style="group;fillColor=#008a00;fontColor=#ffffff;strokeColor=light-dark(#000000, #82cd82);container=0;" vertex="1" connectable="0" parent="1141">
                    <mxGeometry width="40" height="40" as="geometry"/>
                </mxCell>
                <mxCell id="1143" value="" style="whiteSpace=wrap;html=1;aspect=fixed;strokeWidth=3;fillColor=#0050ef;fontColor=#ffffff;strokeColor=light-dark(#0026ff, #b2cbff);container=0;" vertex="1" parent="1141">
                    <mxGeometry width="80" height="80" as="geometry"/>
                </mxCell>
                <mxCell id="1144" value="" style="rounded=0;whiteSpace=wrap;html=1;fillColor=#008a00;fontColor=#ffffff;strokeColor=light-dark(#000000, #82cd82);container=0;" vertex="1" parent="1141">
                    <mxGeometry width="10" height="80" as="geometry"/>
                </mxCell>
                <mxCell id="1145" value="" style="rounded=0;whiteSpace=wrap;html=1;fillColor=#008a00;fontColor=#ffffff;strokeColor=light-dark(#000000, #82cd82);container=0;" vertex="1" parent="1141">
                    <mxGeometry x="10" width="10" height="80" as="geometry"/>
                </mxCell>
                <mxCell id="1146" value="" style="rounded=0;whiteSpace=wrap;html=1;fillColor=#008a00;fontColor=#ffffff;strokeColor=light-dark(#000000, #82cd82);container=0;" vertex="1" parent="1141">
                    <mxGeometry x="20" width="10" height="80" as="geometry"/>
                </mxCell>
                <mxCell id="1147" value="" style="rounded=0;whiteSpace=wrap;html=1;fillColor=#008a00;fontColor=#ffffff;strokeColor=light-dark(#000000, #82cd82);container=0;" vertex="1" parent="1141">
                    <mxGeometry x="30" width="10" height="80" as="geometry"/>
                </mxCell>
                <mxCell id="1148" value="" style="rounded=1;whiteSpace=wrap;html=1;fillColor=#008a00;fontColor=#ffffff;strokeColor=light-dark(#000000, #82cd82);container=0;" vertex="1" parent="1141">
                    <mxGeometry x="40" width="10" height="80" as="geometry"/>
                </mxCell>
                <mxCell id="1149" value="" style="rounded=1;whiteSpace=wrap;html=1;fillColor=#008a00;fontColor=#ffffff;strokeColor=light-dark(#000000, #82cd82);container=0;" vertex="1" parent="1141">
                    <mxGeometry x="50" width="10" height="80" as="geometry"/>
                </mxCell>
                <mxCell id="1150" value="" style="rounded=1;whiteSpace=wrap;html=1;fillColor=#008a00;fontColor=#ffffff;strokeColor=light-dark(#000000, #82cd82);container=0;" vertex="1" parent="1141">
                    <mxGeometry x="60" width="10" height="80" as="geometry"/>
                </mxCell>
                <mxCell id="1151" value="" style="rounded=1;whiteSpace=wrap;html=1;fillColor=#008a00;fontColor=#ffffff;strokeColor=light-dark(#000000, #82cd82);container=0;" vertex="1" parent="1141">
                    <mxGeometry x="70" width="10" height="80" as="geometry"/>
                </mxCell>
                <mxCell id="1152" value="&lt;span style=&quot;forced-color-adjust: none; color: light-dark(rgb(78, 201, 176), rgb(6, 112, 90)); scrollbar-color: rgb(226, 226, 226) rgb(251, 251, 251); font-family: Consolas, &amp;quot;Courier New&amp;quot;, monospace; font-style: normal; font-variant-ligatures: normal; font-variant-caps: normal; font-weight: 400; letter-spacing: normal; orphans: 2; text-align: left; text-indent: 0px; text-transform: none; widows: 2; word-spacing: 0px; -webkit-text-stroke-width: 0px; white-space: pre; background-color: rgb(31, 31, 31); text-decoration-thickness: initial; text-decoration-style: initial; text-decoration-color: initial;&quot; data-mx-given-colors=&quot;{&amp;quot;color&amp;quot;:&amp;quot;rgb(78, 201, 176)&amp;quot;}&quot;&gt;uint8_t&lt;/span&gt;&lt;span style=&quot;forced-color-adjust: none; color: light-dark(rgb(204, 204, 204), rgb(62, 62, 62)); scrollbar-color: rgb(226, 226, 226) rgb(251, 251, 251); font-family: Consolas, &amp;quot;Courier New&amp;quot;, monospace; font-style: normal; font-variant-ligatures: normal; font-variant-caps: normal; font-weight: 400; letter-spacing: normal; orphans: 2; text-align: left; text-indent: 0px; text-transform: none; widows: 2; word-spacing: 0px; -webkit-text-stroke-width: 0px; white-space: pre; background-color: rgb(31, 31, 31); text-decoration-thickness: initial; text-decoration-style: initial; text-decoration-color: initial;&quot; data-mx-given-colors=&quot;{&amp;quot;color&amp;quot;:&amp;quot;rgb(204, 204, 204)&amp;quot;}&quot;&gt; &lt;/span&gt;&lt;span style=&quot;forced-color-adjust: none; color: light-dark(rgb(156, 220, 254), rgb(12, 67, 96)); scrollbar-color: rgb(226, 226, 226) rgb(251, 251, 251); font-family: Consolas, &amp;quot;Courier New&amp;quot;, monospace; font-style: normal; font-variant-ligatures: normal; font-variant-caps: normal; font-weight: 400; letter-spacing: normal; orphans: 2; text-align: left; text-indent: 0px; text-transform: none; widows: 2; word-spacing: 0px; -webkit-text-stroke-width: 0px; white-space: pre; background-color: rgb(31, 31, 31); text-decoration-thickness: initial; text-decoration-style: initial; text-decoration-color: initial;&quot; data-mx-given-colors=&quot;{&amp;quot;color&amp;quot;:&amp;quot;rgb(156, 220, 254)&amp;quot;}&quot;&gt;typeID&lt;/span&gt;" style="text;whiteSpace=wrap;html=1;fontSize=7;" vertex="1" parent="1">
                    <mxGeometry x="-670" y="402" width="80" height="20" as="geometry"/>
                </mxCell>
                <mxCell id="1153" value="&lt;font style=&quot;font-size: 7px;&quot;&gt;&lt;span style=&quot;forced-color-adjust: none; color: light-dark(rgb(78, 201, 176), rgb(6, 112, 90)); scrollbar-color: rgb(226, 226, 226) rgb(251, 251, 251); font-family: Consolas, &amp;quot;Courier New&amp;quot;, monospace; font-style: normal; font-variant-ligatures: normal; font-variant-caps: normal; font-weight: 400; letter-spacing: normal; orphans: 2; text-align: left; text-indent: 0px; text-transform: none; widows: 2; word-spacing: 0px; -webkit-text-stroke-width: 0px; white-space: pre; background-color: rgb(31, 31, 31); text-decoration-thickness: initial; text-decoration-style: initial; text-decoration-color: initial;&quot;&gt;uint8_t&lt;/span&gt;&lt;span style=&quot;forced-color-adjust: none; color: light-dark(rgb(204, 204, 204), rgb(62, 62, 62)); scrollbar-color: rgb(226, 226, 226) rgb(251, 251, 251); font-family: Consolas, &amp;quot;Courier New&amp;quot;, monospace; font-style: normal; font-variant-ligatures: normal; font-variant-caps: normal; font-weight: 400; letter-spacing: normal; orphans: 2; text-align: left; text-indent: 0px; text-transform: none; widows: 2; word-spacing: 0px; -webkit-text-stroke-width: 0px; white-space: pre; background-color: rgb(31, 31, 31); text-decoration-thickness: initial; text-decoration-style: initial; text-decoration-color: initial;&quot;&gt; &lt;/span&gt;&lt;span style=&quot;forced-color-adjust: none; color: light-dark(rgb(156, 220, 254), rgb(12, 67, 96)); scrollbar-color: rgb(226, 226, 226) rgb(251, 251, 251); font-family: Consolas, &amp;quot;Courier New&amp;quot;, monospace; font-style: normal; font-variant-ligatures: normal; font-variant-caps: normal; font-weight: 400; letter-spacing: normal; orphans: 2; text-align: left; text-indent: 0px; text-transform: none; widows: 2; word-spacing: 0px; -webkit-text-stroke-width: 0px; white-space: pre; background-color: rgb(31, 31, 31); text-decoration-thickness: initial; text-decoration-style: initial; text-decoration-color: initial;&quot;&gt;commandType&lt;/span&gt;&lt;/font&gt;" style="text;whiteSpace=wrap;html=1;fontSize=10;" vertex="1" parent="1">
                    <mxGeometry x="-590" y="399" width="80" height="20" as="geometry"/>
                </mxCell>
                <mxCell id="1154" value="&lt;font style=&quot;font-size: 7px;&quot;&gt;&lt;span style=&quot;forced-color-adjust: none; color: light-dark(rgb(78, 201, 176), rgb(6, 112, 90)); scrollbar-color: rgb(226, 226, 226) rgb(251, 251, 251); font-family: Consolas, &amp;quot;Courier New&amp;quot;, monospace; font-style: normal; font-variant-ligatures: normal; font-variant-caps: normal; font-weight: 400; letter-spacing: normal; orphans: 2; text-align: left; text-indent: 0px; text-transform: none; widows: 2; word-spacing: 0px; -webkit-text-stroke-width: 0px; white-space: pre; background-color: rgb(31, 31, 31); text-decoration-thickness: initial; text-decoration-style: initial; text-decoration-color: initial;&quot;&gt;uint8_t&lt;/span&gt;&lt;span style=&quot;forced-color-adjust: none; color: light-dark(rgb(204, 204, 204), rgb(62, 62, 62)); scrollbar-color: rgb(226, 226, 226) rgb(251, 251, 251); font-family: Consolas, &amp;quot;Courier New&amp;quot;, monospace; font-style: normal; font-variant-ligatures: normal; font-variant-caps: normal; font-weight: 400; letter-spacing: normal; orphans: 2; text-align: left; text-indent: 0px; text-transform: none; widows: 2; word-spacing: 0px; -webkit-text-stroke-width: 0px; white-space: pre; background-color: rgb(31, 31, 31); text-decoration-thickness: initial; text-decoration-style: initial; text-decoration-color: initial;&quot;&gt; &lt;/span&gt;&lt;span style=&quot;forced-color-adjust: none; color: light-dark(rgb(156, 220, 254), rgb(12, 67, 96)); scrollbar-color: rgb(226, 226, 226) rgb(251, 251, 251); font-family: Consolas, &amp;quot;Courier New&amp;quot;, monospace; font-style: normal; font-variant-ligatures: normal; font-variant-caps: normal; font-weight: 400; letter-spacing: normal; orphans: 2; text-align: left; text-indent: 0px; text-transform: none; widows: 2; word-spacing: 0px; -webkit-text-stroke-width: 0px; white-space: pre; background-color: rgb(31, 31, 31); text-decoration-thickness: initial; text-decoration-style: initial; text-decoration-color: initial;&quot;&gt;errorFlags&lt;/span&gt;&lt;/font&gt;" style="text;whiteSpace=wrap;html=1;fontSize=10;" vertex="1" parent="1">
                    <mxGeometry x="-507" y="399" width="80" height="20" as="geometry"/>
                </mxCell>
                <mxCell id="1155" value="&lt;font style=&quot;font-size: 7px;&quot;&gt;&lt;span style=&quot;forced-color-adjust: none; color: light-dark(rgb(78, 201, 176), rgb(6, 112, 90)); scrollbar-color: rgb(226, 226, 226) rgb(251, 251, 251); font-family: Consolas, &amp;quot;Courier New&amp;quot;, monospace; font-style: normal; font-variant-ligatures: normal; font-variant-caps: normal; font-weight: 400; letter-spacing: normal; orphans: 2; text-align: left; text-indent: 0px; text-transform: none; widows: 2; word-spacing: 0px; -webkit-text-stroke-width: 0px; white-space: pre; background-color: rgb(31, 31, 31); text-decoration-thickness: initial; text-decoration-style: initial; text-decoration-color: initial;&quot;&gt;float&lt;/span&gt;&lt;span style=&quot;forced-color-adjust: none; color: light-dark(rgb(204, 204, 204), rgb(62, 62, 62)); scrollbar-color: rgb(226, 226, 226) rgb(251, 251, 251); font-family: Consolas, &amp;quot;Courier New&amp;quot;, monospace; font-style: normal; font-variant-ligatures: normal; font-variant-caps: normal; font-weight: 400; letter-spacing: normal; orphans: 2; text-align: left; text-indent: 0px; text-transform: none; widows: 2; word-spacing: 0px; -webkit-text-stroke-width: 0px; white-space: pre; background-color: rgb(31, 31, 31); text-decoration-thickness: initial; text-decoration-style: initial; text-decoration-color: initial;&quot;&gt; &lt;/span&gt;&lt;span style=&quot;forced-color-adjust: none; color: light-dark(rgb(156, 220, 254), rgb(12, 67, 96)); scrollbar-color: rgb(226, 226, 226) rgb(251, 251, 251); font-family: Consolas, &amp;quot;Courier New&amp;quot;, monospace; font-style: normal; font-variant-ligatures: normal; font-variant-caps: normal; font-weight: 400; letter-spacing: normal; orphans: 2; text-align: left; text-indent: 0px; text-transform: none; widows: 2; word-spacing: 0px; -webkit-text-stroke-width: 0px; white-space: pre; background-color: rgb(31, 31, 31); text-decoration-thickness: initial; text-decoration-style: initial; text-decoration-color: initial;&quot;&gt;data[0]&lt;/span&gt;&lt;/font&gt;" style="text;whiteSpace=wrap;html=1;fontSize=10;" vertex="1" parent="1">
                    <mxGeometry x="-298" y="399" width="64" height="19" as="geometry"/>
                </mxCell>
                <mxCell id="1156" value="&lt;font style=&quot;font-size: 7px;&quot;&gt;&lt;span style=&quot;forced-color-adjust: none; color: light-dark(rgb(78, 201, 176), rgb(6, 112, 90)); scrollbar-color: rgb(226, 226, 226) rgb(251, 251, 251); font-family: Consolas, &amp;quot;Courier New&amp;quot;, monospace; font-style: normal; font-variant-ligatures: normal; font-variant-caps: normal; font-weight: 400; letter-spacing: normal; orphans: 2; text-align: left; text-indent: 0px; text-transform: none; widows: 2; word-spacing: 0px; -webkit-text-stroke-width: 0px; white-space: pre; background-color: rgb(31, 31, 31); text-decoration-thickness: initial; text-decoration-style: initial; text-decoration-color: initial;&quot;&gt;float&lt;/span&gt;&lt;span style=&quot;forced-color-adjust: none; color: light-dark(rgb(204, 204, 204), rgb(62, 62, 62)); scrollbar-color: rgb(226, 226, 226) rgb(251, 251, 251); font-family: Consolas, &amp;quot;Courier New&amp;quot;, monospace; font-style: normal; font-variant-ligatures: normal; font-variant-caps: normal; font-weight: 400; letter-spacing: normal; orphans: 2; text-align: left; text-indent: 0px; text-transform: none; widows: 2; word-spacing: 0px; -webkit-text-stroke-width: 0px; white-space: pre; background-color: rgb(31, 31, 31); text-decoration-thickness: initial; text-decoration-style: initial; text-decoration-color: initial;&quot;&gt; &lt;/span&gt;&lt;span style=&quot;forced-color-adjust: none; color: light-dark(rgb(156, 220, 254), rgb(12, 67, 96)); scrollbar-color: rgb(226, 226, 226) rgb(251, 251, 251); font-family: Consolas, &amp;quot;Courier New&amp;quot;, monospace; font-style: normal; font-variant-ligatures: normal; font-variant-caps: normal; font-weight: 400; letter-spacing: normal; orphans: 2; text-align: left; text-indent: 0px; text-transform: none; widows: 2; word-spacing: 0px; -webkit-text-stroke-width: 0px; white-space: pre; background-color: rgb(31, 31, 31); text-decoration-thickness: initial; text-decoration-style: initial; text-decoration-color: initial;&quot;&gt;data[1]&lt;/span&gt;&lt;/font&gt;" style="text;whiteSpace=wrap;html=1;fontSize=10;" vertex="1" parent="1">
                    <mxGeometry x="-620" y="520" width="64" height="19" as="geometry"/>
                </mxCell>
                <mxCell id="1157" value="&lt;font style=&quot;font-size: 7px;&quot;&gt;&lt;span style=&quot;forced-color-adjust: none; color: light-dark(rgb(78, 201, 176), rgb(6, 112, 90)); scrollbar-color: rgb(226, 226, 226) rgb(251, 251, 251); font-family: Consolas, &amp;quot;Courier New&amp;quot;, monospace; font-style: normal; font-variant-ligatures: normal; font-variant-caps: normal; font-weight: 400; letter-spacing: normal; orphans: 2; text-align: left; text-indent: 0px; text-transform: none; widows: 2; word-spacing: 0px; -webkit-text-stroke-width: 0px; white-space: pre; background-color: rgb(31, 31, 31); text-decoration-thickness: initial; text-decoration-style: initial; text-decoration-color: initial;&quot;&gt;float&lt;/span&gt;&lt;span style=&quot;forced-color-adjust: none; color: light-dark(rgb(204, 204, 204), rgb(62, 62, 62)); scrollbar-color: rgb(226, 226, 226) rgb(251, 251, 251); font-family: Consolas, &amp;quot;Courier New&amp;quot;, monospace; font-style: normal; font-variant-ligatures: normal; font-variant-caps: normal; font-weight: 400; letter-spacing: normal; orphans: 2; text-align: left; text-indent: 0px; text-transform: none; widows: 2; word-spacing: 0px; -webkit-text-stroke-width: 0px; white-space: pre; background-color: rgb(31, 31, 31); text-decoration-thickness: initial; text-decoration-style: initial; text-decoration-color: initial;&quot;&gt; &lt;/span&gt;&lt;span style=&quot;forced-color-adjust: none; color: light-dark(rgb(156, 220, 254), rgb(12, 67, 96)); scrollbar-color: rgb(226, 226, 226) rgb(251, 251, 251); font-family: Consolas, &amp;quot;Courier New&amp;quot;, monospace; font-style: normal; font-variant-ligatures: normal; font-variant-caps: normal; font-weight: 400; letter-spacing: normal; orphans: 2; text-align: left; text-indent: 0px; text-transform: none; widows: 2; word-spacing: 0px; -webkit-text-stroke-width: 0px; white-space: pre; background-color: rgb(31, 31, 31); text-decoration-thickness: initial; text-decoration-style: initial; text-decoration-color: initial;&quot;&gt;data[2]&lt;/span&gt;&lt;/font&gt;" style="text;whiteSpace=wrap;html=1;fontSize=10;" vertex="1" parent="1">
                    <mxGeometry x="-300" y="520" width="64" height="19" as="geometry"/>
                </mxCell>
                <mxCell id="1158" value="&lt;font style=&quot;font-size: 7px;&quot;&gt;&lt;span style=&quot;forced-color-adjust: none; color: light-dark(rgb(78, 201, 176), rgb(6, 112, 90)); scrollbar-color: rgb(226, 226, 226) rgb(251, 251, 251); font-family: Consolas, &amp;quot;Courier New&amp;quot;, monospace; font-style: normal; font-variant-ligatures: normal; font-variant-caps: normal; font-weight: 400; letter-spacing: normal; orphans: 2; text-align: left; text-indent: 0px; text-transform: none; widows: 2; word-spacing: 0px; -webkit-text-stroke-width: 0px; white-space: pre; background-color: rgb(31, 31, 31); text-decoration-thickness: initial; text-decoration-style: initial; text-decoration-color: initial;&quot;&gt;float&lt;/span&gt;&lt;span style=&quot;forced-color-adjust: none; color: light-dark(rgb(204, 204, 204), rgb(62, 62, 62)); scrollbar-color: rgb(226, 226, 226) rgb(251, 251, 251); font-family: Consolas, &amp;quot;Courier New&amp;quot;, monospace; font-style: normal; font-variant-ligatures: normal; font-variant-caps: normal; font-weight: 400; letter-spacing: normal; orphans: 2; text-align: left; text-indent: 0px; text-transform: none; widows: 2; word-spacing: 0px; -webkit-text-stroke-width: 0px; white-space: pre; background-color: rgb(31, 31, 31); text-decoration-thickness: initial; text-decoration-style: initial; text-decoration-color: initial;&quot;&gt; &lt;/span&gt;&lt;span style=&quot;forced-color-adjust: none; color: light-dark(rgb(156, 220, 254), rgb(12, 67, 96)); scrollbar-color: rgb(226, 226, 226) rgb(251, 251, 251); font-family: Consolas, &amp;quot;Courier New&amp;quot;, monospace; font-style: normal; font-variant-ligatures: normal; font-variant-caps: normal; font-weight: 400; letter-spacing: normal; orphans: 2; text-align: left; text-indent: 0px; text-transform: none; widows: 2; word-spacing: 0px; -webkit-text-stroke-width: 0px; white-space: pre; background-color: rgb(31, 31, 31); text-decoration-thickness: initial; text-decoration-style: initial; text-decoration-color: initial;&quot;&gt;data[3]&lt;/span&gt;&lt;/font&gt;" style="text;whiteSpace=wrap;html=1;fontSize=10;" vertex="1" parent="1">
                    <mxGeometry x="-620" y="640" width="64" height="19" as="geometry"/>
                </mxCell>
                <mxCell id="1159" value="&lt;font style=&quot;font-size: 7px;&quot;&gt;&lt;span style=&quot;forced-color-adjust: none; color: light-dark(rgb(78, 201, 176), rgb(6, 112, 90)); scrollbar-color: rgb(226, 226, 226) rgb(251, 251, 251); font-family: Consolas, &amp;quot;Courier New&amp;quot;, monospace; font-style: normal; font-variant-ligatures: normal; font-variant-caps: normal; font-weight: 400; letter-spacing: normal; orphans: 2; text-align: left; text-indent: 0px; text-transform: none; widows: 2; word-spacing: 0px; -webkit-text-stroke-width: 0px; white-space: pre; background-color: rgb(31, 31, 31); text-decoration-thickness: initial; text-decoration-style: initial; text-decoration-color: initial;&quot;&gt;float&lt;/span&gt;&lt;span style=&quot;forced-color-adjust: none; color: light-dark(rgb(204, 204, 204), rgb(62, 62, 62)); scrollbar-color: rgb(226, 226, 226) rgb(251, 251, 251); font-family: Consolas, &amp;quot;Courier New&amp;quot;, monospace; font-style: normal; font-variant-ligatures: normal; font-variant-caps: normal; font-weight: 400; letter-spacing: normal; orphans: 2; text-align: left; text-indent: 0px; text-transform: none; widows: 2; word-spacing: 0px; -webkit-text-stroke-width: 0px; white-space: pre; background-color: rgb(31, 31, 31); text-decoration-thickness: initial; text-decoration-style: initial; text-decoration-color: initial;&quot;&gt; &lt;/span&gt;&lt;span style=&quot;forced-color-adjust: none; color: light-dark(rgb(156, 220, 254), rgb(12, 67, 96)); scrollbar-color: rgb(226, 226, 226) rgb(251, 251, 251); font-family: Consolas, &amp;quot;Courier New&amp;quot;, monospace; font-style: normal; font-variant-ligatures: normal; font-variant-caps: normal; font-weight: 400; letter-spacing: normal; orphans: 2; text-align: left; text-indent: 0px; text-transform: none; widows: 2; word-spacing: 0px; -webkit-text-stroke-width: 0px; white-space: pre; background-color: rgb(31, 31, 31); text-decoration-thickness: initial; text-decoration-style: initial; text-decoration-color: initial;&quot;&gt;data[4]&lt;/span&gt;&lt;/font&gt;" style="text;whiteSpace=wrap;html=1;fontSize=10;" vertex="1" parent="1">
                    <mxGeometry x="-300" y="640" width="64" height="19" as="geometry"/>
                </mxCell>
                <mxCell id="1160" value="&lt;font style=&quot;font-size: 7px;&quot;&gt;&lt;span style=&quot;forced-color-adjust: none; color: light-dark(rgb(78, 201, 176), rgb(6, 112, 90)); scrollbar-color: rgb(226, 226, 226) rgb(251, 251, 251); font-family: Consolas, &amp;quot;Courier New&amp;quot;, monospace; font-style: normal; font-variant-ligatures: normal; font-variant-caps: normal; font-weight: 400; letter-spacing: normal; orphans: 2; text-align: left; text-indent: 0px; text-transform: none; widows: 2; word-spacing: 0px; -webkit-text-stroke-width: 0px; white-space: pre; background-color: rgb(31, 31, 31); text-decoration-thickness: initial; text-decoration-style: initial; text-decoration-color: initial;&quot;&gt;float&lt;/span&gt;&lt;span style=&quot;forced-color-adjust: none; color: light-dark(rgb(204, 204, 204), rgb(62, 62, 62)); scrollbar-color: rgb(226, 226, 226) rgb(251, 251, 251); font-family: Consolas, &amp;quot;Courier New&amp;quot;, monospace; font-style: normal; font-variant-ligatures: normal; font-variant-caps: normal; font-weight: 400; letter-spacing: normal; orphans: 2; text-align: left; text-indent: 0px; text-transform: none; widows: 2; word-spacing: 0px; -webkit-text-stroke-width: 0px; white-space: pre; background-color: rgb(31, 31, 31); text-decoration-thickness: initial; text-decoration-style: initial; text-decoration-color: initial;&quot;&gt; &lt;/span&gt;&lt;span style=&quot;forced-color-adjust: none; color: light-dark(rgb(156, 220, 254), rgb(12, 67, 96)); scrollbar-color: rgb(226, 226, 226) rgb(251, 251, 251); font-family: Consolas, &amp;quot;Courier New&amp;quot;, monospace; font-style: normal; font-variant-ligatures: normal; font-variant-caps: normal; font-weight: 400; letter-spacing: normal; orphans: 2; text-align: left; text-indent: 0px; text-transform: none; widows: 2; word-spacing: 0px; -webkit-text-stroke-width: 0px; white-space: pre; background-color: rgb(31, 31, 31); text-decoration-thickness: initial; text-decoration-style: initial; text-decoration-color: initial;&quot;&gt;data[5]&lt;/span&gt;&lt;/font&gt;" style="text;whiteSpace=wrap;html=1;fontSize=10;" vertex="1" parent="1">
                    <mxGeometry x="-620" y="760" width="64" height="19" as="geometry"/>
                </mxCell>
                <mxCell id="1161" value="&lt;font style=&quot;font-size: 7px;&quot;&gt;&lt;span style=&quot;forced-color-adjust: none; color: light-dark(rgb(78, 201, 176), rgb(6, 112, 90)); scrollbar-color: rgb(226, 226, 226) rgb(251, 251, 251); font-family: Consolas, &amp;quot;Courier New&amp;quot;, monospace; font-style: normal; font-variant-ligatures: normal; font-variant-caps: normal; font-weight: 400; letter-spacing: normal; orphans: 2; text-align: left; text-indent: 0px; text-transform: none; widows: 2; word-spacing: 0px; -webkit-text-stroke-width: 0px; white-space: pre; background-color: rgb(31, 31, 31); text-decoration-thickness: initial; text-decoration-style: initial; text-decoration-color: initial;&quot;&gt;float&lt;/span&gt;&lt;span style=&quot;forced-color-adjust: none; color: light-dark(rgb(204, 204, 204), rgb(62, 62, 62)); scrollbar-color: rgb(226, 226, 226) rgb(251, 251, 251); font-family: Consolas, &amp;quot;Courier New&amp;quot;, monospace; font-style: normal; font-variant-ligatures: normal; font-variant-caps: normal; font-weight: 400; letter-spacing: normal; orphans: 2; text-align: left; text-indent: 0px; text-transform: none; widows: 2; word-spacing: 0px; -webkit-text-stroke-width: 0px; white-space: pre; background-color: rgb(31, 31, 31); text-decoration-thickness: initial; text-decoration-style: initial; text-decoration-color: initial;&quot;&gt; &lt;/span&gt;&lt;span style=&quot;forced-color-adjust: none; color: light-dark(rgb(156, 220, 254), rgb(12, 67, 96)); scrollbar-color: rgb(226, 226, 226) rgb(251, 251, 251); font-family: Consolas, &amp;quot;Courier New&amp;quot;, monospace; font-style: normal; font-variant-ligatures: normal; font-variant-caps: normal; font-weight: 400; letter-spacing: normal; orphans: 2; text-align: left; text-indent: 0px; text-transform: none; widows: 2; word-spacing: 0px; -webkit-text-stroke-width: 0px; white-space: pre; background-color: rgb(31, 31, 31); text-decoration-thickness: initial; text-decoration-style: initial; text-decoration-color: initial;&quot;&gt;data[6]&lt;/span&gt;&lt;/font&gt;" style="text;whiteSpace=wrap;html=1;fontSize=10;" vertex="1" parent="1">
                    <mxGeometry x="-300" y="760" width="64" height="19" as="geometry"/>
                </mxCell>
            </root>
        </mxGraphModel>
    </diagram>
</mxfile>